%TF.GenerationSoftware,KiCad,Pcbnew,8.0.0*%
%TF.CreationDate,2025-07-08T12:20:57+05:30*%
%TF.ProjectId,Sensortech_flex,53656e73-6f72-4746-9563-685f666c6578,rev?*%
%TF.SameCoordinates,Original*%
%TF.FileFunction,Legend,Top*%
%TF.FilePolarity,Positive*%
%FSLAX46Y46*%
G04 Gerber Fmt 4.6, Leading zero omitted, Abs format (unit mm)*
G04 Created by KiCad (PCBNEW 8.0.0) date 2025-07-08 12:20:57*
%MOMM*%
%LPD*%
G01*
G04 APERTURE LIST*
%ADD10C,0.150000*%
%ADD11C,0.120000*%
G04 APERTURE END LIST*
D10*
X97954819Y-59666666D02*
X97478628Y-59999999D01*
X97954819Y-60238094D02*
X96954819Y-60238094D01*
X96954819Y-60238094D02*
X96954819Y-59857142D01*
X96954819Y-59857142D02*
X97002438Y-59761904D01*
X97002438Y-59761904D02*
X97050057Y-59714285D01*
X97050057Y-59714285D02*
X97145295Y-59666666D01*
X97145295Y-59666666D02*
X97288152Y-59666666D01*
X97288152Y-59666666D02*
X97383390Y-59714285D01*
X97383390Y-59714285D02*
X97431009Y-59761904D01*
X97431009Y-59761904D02*
X97478628Y-59857142D01*
X97478628Y-59857142D02*
X97478628Y-60238094D01*
X97050057Y-59285713D02*
X97002438Y-59238094D01*
X97002438Y-59238094D02*
X96954819Y-59142856D01*
X96954819Y-59142856D02*
X96954819Y-58904761D01*
X96954819Y-58904761D02*
X97002438Y-58809523D01*
X97002438Y-58809523D02*
X97050057Y-58761904D01*
X97050057Y-58761904D02*
X97145295Y-58714285D01*
X97145295Y-58714285D02*
X97240533Y-58714285D01*
X97240533Y-58714285D02*
X97383390Y-58761904D01*
X97383390Y-58761904D02*
X97954819Y-59333332D01*
X97954819Y-59333332D02*
X97954819Y-58714285D01*
X81804819Y-77666666D02*
X81328628Y-77999999D01*
X81804819Y-78238094D02*
X80804819Y-78238094D01*
X80804819Y-78238094D02*
X80804819Y-77857142D01*
X80804819Y-77857142D02*
X80852438Y-77761904D01*
X80852438Y-77761904D02*
X80900057Y-77714285D01*
X80900057Y-77714285D02*
X80995295Y-77666666D01*
X80995295Y-77666666D02*
X81138152Y-77666666D01*
X81138152Y-77666666D02*
X81233390Y-77714285D01*
X81233390Y-77714285D02*
X81281009Y-77761904D01*
X81281009Y-77761904D02*
X81328628Y-77857142D01*
X81328628Y-77857142D02*
X81328628Y-78238094D01*
X81138152Y-76809523D02*
X81804819Y-76809523D01*
X80757200Y-77047618D02*
X81471485Y-77285713D01*
X81471485Y-77285713D02*
X81471485Y-76666666D01*
X93166666Y-41454819D02*
X93166666Y-42169104D01*
X93166666Y-42169104D02*
X93119047Y-42311961D01*
X93119047Y-42311961D02*
X93023809Y-42407200D01*
X93023809Y-42407200D02*
X92880952Y-42454819D01*
X92880952Y-42454819D02*
X92785714Y-42454819D01*
X94166666Y-42454819D02*
X93595238Y-42454819D01*
X93880952Y-42454819D02*
X93880952Y-41454819D01*
X93880952Y-41454819D02*
X93785714Y-41597676D01*
X93785714Y-41597676D02*
X93690476Y-41692914D01*
X93690476Y-41692914D02*
X93595238Y-41740533D01*
X88666666Y-75454819D02*
X88666666Y-76169104D01*
X88666666Y-76169104D02*
X88619047Y-76311961D01*
X88619047Y-76311961D02*
X88523809Y-76407200D01*
X88523809Y-76407200D02*
X88380952Y-76454819D01*
X88380952Y-76454819D02*
X88285714Y-76454819D01*
X89095238Y-75550057D02*
X89142857Y-75502438D01*
X89142857Y-75502438D02*
X89238095Y-75454819D01*
X89238095Y-75454819D02*
X89476190Y-75454819D01*
X89476190Y-75454819D02*
X89571428Y-75502438D01*
X89571428Y-75502438D02*
X89619047Y-75550057D01*
X89619047Y-75550057D02*
X89666666Y-75645295D01*
X89666666Y-75645295D02*
X89666666Y-75740533D01*
X89666666Y-75740533D02*
X89619047Y-75883390D01*
X89619047Y-75883390D02*
X89047619Y-76454819D01*
X89047619Y-76454819D02*
X89666666Y-76454819D01*
X81885427Y-73627381D02*
X81035427Y-73627381D01*
X81035427Y-73627381D02*
X81035427Y-73425000D01*
X81035427Y-73425000D02*
X81075903Y-73303571D01*
X81075903Y-73303571D02*
X81156855Y-73222619D01*
X81156855Y-73222619D02*
X81237808Y-73182142D01*
X81237808Y-73182142D02*
X81399712Y-73141666D01*
X81399712Y-73141666D02*
X81521141Y-73141666D01*
X81521141Y-73141666D02*
X81683046Y-73182142D01*
X81683046Y-73182142D02*
X81763998Y-73222619D01*
X81763998Y-73222619D02*
X81844951Y-73303571D01*
X81844951Y-73303571D02*
X81885427Y-73425000D01*
X81885427Y-73425000D02*
X81885427Y-73627381D01*
X81885427Y-72332142D02*
X81885427Y-72817857D01*
X81885427Y-72575000D02*
X81035427Y-72575000D01*
X81035427Y-72575000D02*
X81156855Y-72655952D01*
X81156855Y-72655952D02*
X81237808Y-72736904D01*
X81237808Y-72736904D02*
X81278284Y-72817857D01*
X88666666Y-70954819D02*
X88666666Y-71669104D01*
X88666666Y-71669104D02*
X88619047Y-71811961D01*
X88619047Y-71811961D02*
X88523809Y-71907200D01*
X88523809Y-71907200D02*
X88380952Y-71954819D01*
X88380952Y-71954819D02*
X88285714Y-71954819D01*
X89047619Y-70954819D02*
X89666666Y-70954819D01*
X89666666Y-70954819D02*
X89333333Y-71335771D01*
X89333333Y-71335771D02*
X89476190Y-71335771D01*
X89476190Y-71335771D02*
X89571428Y-71383390D01*
X89571428Y-71383390D02*
X89619047Y-71431009D01*
X89619047Y-71431009D02*
X89666666Y-71526247D01*
X89666666Y-71526247D02*
X89666666Y-71764342D01*
X89666666Y-71764342D02*
X89619047Y-71859580D01*
X89619047Y-71859580D02*
X89571428Y-71907200D01*
X89571428Y-71907200D02*
X89476190Y-71954819D01*
X89476190Y-71954819D02*
X89190476Y-71954819D01*
X89190476Y-71954819D02*
X89095238Y-71907200D01*
X89095238Y-71907200D02*
X89047619Y-71859580D01*
X97954819Y-63666666D02*
X97478628Y-63999999D01*
X97954819Y-64238094D02*
X96954819Y-64238094D01*
X96954819Y-64238094D02*
X96954819Y-63857142D01*
X96954819Y-63857142D02*
X97002438Y-63761904D01*
X97002438Y-63761904D02*
X97050057Y-63714285D01*
X97050057Y-63714285D02*
X97145295Y-63666666D01*
X97145295Y-63666666D02*
X97288152Y-63666666D01*
X97288152Y-63666666D02*
X97383390Y-63714285D01*
X97383390Y-63714285D02*
X97431009Y-63761904D01*
X97431009Y-63761904D02*
X97478628Y-63857142D01*
X97478628Y-63857142D02*
X97478628Y-64238094D01*
X97954819Y-62714285D02*
X97954819Y-63285713D01*
X97954819Y-62999999D02*
X96954819Y-62999999D01*
X96954819Y-62999999D02*
X97097676Y-63095237D01*
X97097676Y-63095237D02*
X97192914Y-63190475D01*
X97192914Y-63190475D02*
X97240533Y-63285713D01*
X89404761Y-52454819D02*
X89071428Y-51978628D01*
X88833333Y-52454819D02*
X88833333Y-51454819D01*
X88833333Y-51454819D02*
X89214285Y-51454819D01*
X89214285Y-51454819D02*
X89309523Y-51502438D01*
X89309523Y-51502438D02*
X89357142Y-51550057D01*
X89357142Y-51550057D02*
X89404761Y-51645295D01*
X89404761Y-51645295D02*
X89404761Y-51788152D01*
X89404761Y-51788152D02*
X89357142Y-51883390D01*
X89357142Y-51883390D02*
X89309523Y-51931009D01*
X89309523Y-51931009D02*
X89214285Y-51978628D01*
X89214285Y-51978628D02*
X88833333Y-51978628D01*
X89690476Y-51454819D02*
X90023809Y-52454819D01*
X90023809Y-52454819D02*
X90357142Y-51454819D01*
X91214285Y-52454819D02*
X90642857Y-52454819D01*
X90928571Y-52454819D02*
X90928571Y-51454819D01*
X90928571Y-51454819D02*
X90833333Y-51597676D01*
X90833333Y-51597676D02*
X90738095Y-51692914D01*
X90738095Y-51692914D02*
X90642857Y-51740533D01*
X98104819Y-73738094D02*
X97104819Y-73738094D01*
X97104819Y-73738094D02*
X97104819Y-73499999D01*
X97104819Y-73499999D02*
X97152438Y-73357142D01*
X97152438Y-73357142D02*
X97247676Y-73261904D01*
X97247676Y-73261904D02*
X97342914Y-73214285D01*
X97342914Y-73214285D02*
X97533390Y-73166666D01*
X97533390Y-73166666D02*
X97676247Y-73166666D01*
X97676247Y-73166666D02*
X97866723Y-73214285D01*
X97866723Y-73214285D02*
X97961961Y-73261904D01*
X97961961Y-73261904D02*
X98057200Y-73357142D01*
X98057200Y-73357142D02*
X98104819Y-73499999D01*
X98104819Y-73499999D02*
X98104819Y-73738094D01*
X97200057Y-72785713D02*
X97152438Y-72738094D01*
X97152438Y-72738094D02*
X97104819Y-72642856D01*
X97104819Y-72642856D02*
X97104819Y-72404761D01*
X97104819Y-72404761D02*
X97152438Y-72309523D01*
X97152438Y-72309523D02*
X97200057Y-72261904D01*
X97200057Y-72261904D02*
X97295295Y-72214285D01*
X97295295Y-72214285D02*
X97390533Y-72214285D01*
X97390533Y-72214285D02*
X97533390Y-72261904D01*
X97533390Y-72261904D02*
X98104819Y-72833332D01*
X98104819Y-72833332D02*
X98104819Y-72214285D01*
X88748095Y-58324819D02*
X88748095Y-59134342D01*
X88748095Y-59134342D02*
X88795714Y-59229580D01*
X88795714Y-59229580D02*
X88843333Y-59277200D01*
X88843333Y-59277200D02*
X88938571Y-59324819D01*
X88938571Y-59324819D02*
X89129047Y-59324819D01*
X89129047Y-59324819D02*
X89224285Y-59277200D01*
X89224285Y-59277200D02*
X89271904Y-59229580D01*
X89271904Y-59229580D02*
X89319523Y-59134342D01*
X89319523Y-59134342D02*
X89319523Y-58324819D01*
X90319523Y-59324819D02*
X89748095Y-59324819D01*
X90033809Y-59324819D02*
X90033809Y-58324819D01*
X90033809Y-58324819D02*
X89938571Y-58467676D01*
X89938571Y-58467676D02*
X89843333Y-58562914D01*
X89843333Y-58562914D02*
X89748095Y-58610533D01*
X81954819Y-68666666D02*
X81478628Y-68999999D01*
X81954819Y-69238094D02*
X80954819Y-69238094D01*
X80954819Y-69238094D02*
X80954819Y-68857142D01*
X80954819Y-68857142D02*
X81002438Y-68761904D01*
X81002438Y-68761904D02*
X81050057Y-68714285D01*
X81050057Y-68714285D02*
X81145295Y-68666666D01*
X81145295Y-68666666D02*
X81288152Y-68666666D01*
X81288152Y-68666666D02*
X81383390Y-68714285D01*
X81383390Y-68714285D02*
X81431009Y-68761904D01*
X81431009Y-68761904D02*
X81478628Y-68857142D01*
X81478628Y-68857142D02*
X81478628Y-69238094D01*
X80954819Y-68333332D02*
X80954819Y-67714285D01*
X80954819Y-67714285D02*
X81335771Y-68047618D01*
X81335771Y-68047618D02*
X81335771Y-67904761D01*
X81335771Y-67904761D02*
X81383390Y-67809523D01*
X81383390Y-67809523D02*
X81431009Y-67761904D01*
X81431009Y-67761904D02*
X81526247Y-67714285D01*
X81526247Y-67714285D02*
X81764342Y-67714285D01*
X81764342Y-67714285D02*
X81859580Y-67761904D01*
X81859580Y-67761904D02*
X81907200Y-67809523D01*
X81907200Y-67809523D02*
X81954819Y-67904761D01*
X81954819Y-67904761D02*
X81954819Y-68190475D01*
X81954819Y-68190475D02*
X81907200Y-68285713D01*
X81907200Y-68285713D02*
X81859580Y-68333332D01*
X97954819Y-77666666D02*
X97478628Y-77999999D01*
X97954819Y-78238094D02*
X96954819Y-78238094D01*
X96954819Y-78238094D02*
X96954819Y-77857142D01*
X96954819Y-77857142D02*
X97002438Y-77761904D01*
X97002438Y-77761904D02*
X97050057Y-77714285D01*
X97050057Y-77714285D02*
X97145295Y-77666666D01*
X97145295Y-77666666D02*
X97288152Y-77666666D01*
X97288152Y-77666666D02*
X97383390Y-77714285D01*
X97383390Y-77714285D02*
X97431009Y-77761904D01*
X97431009Y-77761904D02*
X97478628Y-77857142D01*
X97478628Y-77857142D02*
X97478628Y-78238094D01*
X96954819Y-76761904D02*
X96954819Y-77238094D01*
X96954819Y-77238094D02*
X97431009Y-77285713D01*
X97431009Y-77285713D02*
X97383390Y-77238094D01*
X97383390Y-77238094D02*
X97335771Y-77142856D01*
X97335771Y-77142856D02*
X97335771Y-76904761D01*
X97335771Y-76904761D02*
X97383390Y-76809523D01*
X97383390Y-76809523D02*
X97431009Y-76761904D01*
X97431009Y-76761904D02*
X97526247Y-76714285D01*
X97526247Y-76714285D02*
X97764342Y-76714285D01*
X97764342Y-76714285D02*
X97859580Y-76761904D01*
X97859580Y-76761904D02*
X97907200Y-76809523D01*
X97907200Y-76809523D02*
X97954819Y-76904761D01*
X97954819Y-76904761D02*
X97954819Y-77142856D01*
X97954819Y-77142856D02*
X97907200Y-77238094D01*
X97907200Y-77238094D02*
X97859580Y-77285713D01*
D11*
%TO.C,R2*%
X95265000Y-59727064D02*
X95265000Y-59272936D01*
X96735000Y-59727064D02*
X96735000Y-59272936D01*
%TO.C,R4*%
X82265000Y-77727064D02*
X82265000Y-77272936D01*
X83735000Y-77727064D02*
X83735000Y-77272936D01*
%TO.C,J1*%
X86670000Y-48160000D02*
X86670000Y-41840000D01*
X87440000Y-41840000D02*
X86670000Y-41840000D01*
X87440000Y-42400000D02*
X86670000Y-42400000D01*
X89980000Y-41840000D02*
X89020000Y-41840000D01*
X89980000Y-42400000D02*
X89020000Y-42400000D01*
X92330000Y-41840000D02*
X91560000Y-41840000D01*
X92330000Y-42400000D02*
X91560000Y-42400000D01*
X92330000Y-47700000D02*
X86670000Y-47700000D01*
X92330000Y-48160000D02*
X86670000Y-48160000D01*
X92330000Y-48160000D02*
X92330000Y-41840000D01*
X92570000Y-41600000D02*
X92070000Y-41600000D01*
X92570000Y-42340000D02*
X92570000Y-41600000D01*
%TO.C,J2*%
X85495000Y-79330000D02*
X85495000Y-78000000D01*
X86825000Y-79330000D02*
X85495000Y-79330000D01*
X88095000Y-76670000D02*
X93235000Y-76670000D01*
X88095000Y-79330000D02*
X88095000Y-76670000D01*
X88095000Y-79330000D02*
X93235000Y-79330000D01*
X93235000Y-79330000D02*
X93235000Y-76670000D01*
%TO.C,D1*%
X82040000Y-71140000D02*
X82040000Y-74000000D01*
X83960000Y-71140000D02*
X82040000Y-71140000D01*
X83960000Y-74000000D02*
X83960000Y-71140000D01*
%TO.C,J3*%
X85630000Y-74830000D02*
X85630000Y-73500000D01*
X86960000Y-74830000D02*
X85630000Y-74830000D01*
X88230000Y-72170000D02*
X93370000Y-72170000D01*
X88230000Y-74830000D02*
X88230000Y-72170000D01*
X88230000Y-74830000D02*
X93370000Y-74830000D01*
X93370000Y-74830000D02*
X93370000Y-72170000D01*
%TO.C,R1*%
X95265000Y-63272936D02*
X95265000Y-63727064D01*
X96735000Y-63272936D02*
X96735000Y-63727064D01*
%TO.C,RV1*%
X84615000Y-49115000D02*
X84615000Y-58885000D01*
X84615000Y-49115000D02*
X94385000Y-49115000D01*
X84615000Y-58885000D02*
X94385000Y-58885000D01*
X94385000Y-49115000D02*
X94385000Y-58885000D01*
%TO.C,D2*%
X95040000Y-71140000D02*
X95040000Y-74000000D01*
X96960000Y-71140000D02*
X95040000Y-71140000D01*
X96960000Y-74000000D02*
X96960000Y-71140000D01*
%TO.C,U1*%
X86860000Y-59870000D02*
X86860000Y-70150000D01*
X86860000Y-70150000D02*
X92160000Y-70150000D01*
X88510000Y-59870000D02*
X86860000Y-59870000D01*
X92160000Y-59870000D02*
X90510000Y-59870000D01*
X92160000Y-70150000D02*
X92160000Y-59870000D01*
X90510000Y-59870000D02*
G75*
G02*
X88510000Y-59870000I-1000000J0D01*
G01*
%TO.C,R3*%
X82265000Y-68272936D02*
X82265000Y-68727064D01*
X83735000Y-68272936D02*
X83735000Y-68727064D01*
%TO.C,R5*%
X95265000Y-77727064D02*
X95265000Y-77272936D01*
X96735000Y-77727064D02*
X96735000Y-77272936D01*
%TD*%
M02*
