%TF.GenerationSoftware,KiCad,Pcbnew,8.0.0*%
%TF.CreationDate,2025-07-08T12:20:57+05:30*%
%TF.ProjectId,Sensortech_flex,53656e73-6f72-4746-9563-685f666c6578,rev?*%
%TF.SameCoordinates,Original*%
%TF.FileFunction,Copper,L2,Bot*%
%TF.FilePolarity,Positive*%
%FSLAX46Y46*%
G04 Gerber Fmt 4.6, Leading zero omitted, Abs format (unit mm)*
G04 Created by KiCad (PCBNEW 8.0.0) date 2025-07-08 12:20:57*
%MOMM*%
%LPD*%
G01*
G04 APERTURE LIST*
%TA.AperFunction,ComponentPad*%
%ADD10R,2.200000X2.200000*%
%TD*%
%TA.AperFunction,ComponentPad*%
%ADD11C,2.200000*%
%TD*%
%TA.AperFunction,ComponentPad*%
%ADD12R,1.700000X1.700000*%
%TD*%
%TA.AperFunction,ComponentPad*%
%ADD13O,1.700000X1.700000*%
%TD*%
%TA.AperFunction,ComponentPad*%
%ADD14C,1.440000*%
%TD*%
%TA.AperFunction,ComponentPad*%
%ADD15R,1.600000X1.600000*%
%TD*%
%TA.AperFunction,ComponentPad*%
%ADD16O,1.600000X1.600000*%
%TD*%
%TA.AperFunction,ViaPad*%
%ADD17C,0.800000*%
%TD*%
%TA.AperFunction,Conductor*%
%ADD18C,0.750000*%
%TD*%
G04 APERTURE END LIST*
D10*
%TO.P,J1,1,Pin_1*%
%TO.N,A*%
X90770000Y-45000000D03*
D11*
%TO.P,J1,2,Pin_2*%
%TO.N,gnd*%
X88230000Y-45000000D03*
%TD*%
D12*
%TO.P,J2,1,Pin_1*%
%TO.N,Vcc*%
X86825000Y-78000000D03*
D13*
%TO.P,J2,2,Pin_2*%
%TO.N,gnd*%
X89365000Y-78000000D03*
%TO.P,J2,3,Pin_3*%
%TO.N,Do*%
X91905000Y-78000000D03*
%TD*%
D12*
%TO.P,J3,1,Pin_1*%
%TO.N,H*%
X86960000Y-73500000D03*
D13*
%TO.P,J3,2,Pin_2*%
%TO.N,Do*%
X89500000Y-73500000D03*
%TO.P,J3,3,Pin_3*%
%TO.N,L*%
X92040000Y-73500000D03*
%TD*%
D14*
%TO.P,RV1,1,1*%
%TO.N,Net-(R3-Pad1)*%
X86845000Y-56540000D03*
%TO.P,RV1,2,2*%
%TO.N,B*%
X91925000Y-54000000D03*
%TO.P,RV1,3,3*%
%TO.N,Net-(R2-Pad2)*%
X86845000Y-51460000D03*
%TD*%
D15*
%TO.P,U1,1*%
%TO.N,H*%
X85700000Y-61200000D03*
D16*
%TO.P,U1,2,-*%
%TO.N,B*%
X85700000Y-63740000D03*
%TO.P,U1,3,+*%
%TO.N,A*%
X85700000Y-66280000D03*
%TO.P,U1,4,V-*%
%TO.N,gnd*%
X85700000Y-68820000D03*
%TO.P,U1,5,+*%
%TO.N,B*%
X93320000Y-68820000D03*
%TO.P,U1,6,-*%
%TO.N,A*%
X93320000Y-66280000D03*
%TO.P,U1,7*%
%TO.N,L*%
X93320000Y-63740000D03*
%TO.P,U1,8,V+*%
%TO.N,Vcc*%
X93320000Y-61200000D03*
%TD*%
D17*
%TO.N,A*%
X96000000Y-66000000D03*
%TO.N,L*%
X91000000Y-64500000D03*
%TO.N,H*%
X87500000Y-62000000D03*
%TO.N,B*%
X89500000Y-67500000D03*
X89000000Y-64000000D03*
%TD*%
D18*
%TO.N,A*%
X90770000Y-44500000D02*
X90770000Y-50270000D01*
X90770000Y-50270000D02*
X96000000Y-55500000D01*
X96000000Y-55500000D02*
X96000000Y-66000000D01*
%TO.N,Do*%
X89500000Y-75595000D02*
X91905000Y-78000000D01*
X89500000Y-73500000D02*
X89500000Y-75595000D01*
%TO.N,L*%
X92040000Y-73500000D02*
X91000000Y-72460000D01*
X91000000Y-72460000D02*
X91000000Y-64500000D01*
%TO.N,H*%
X87500000Y-72500000D02*
X87500000Y-62000000D01*
X86960000Y-73500000D02*
X86960000Y-73040000D01*
X86960000Y-73040000D02*
X87500000Y-72500000D01*
%TO.N,B*%
X91925000Y-54000000D02*
X89500000Y-56425000D01*
X89500000Y-56425000D02*
X89500000Y-64000000D01*
X89500000Y-64000000D02*
X89000000Y-64000000D01*
X89500000Y-64000000D02*
X89500000Y-67500000D01*
%TD*%
%TA.AperFunction,Conductor*%
%TO.N,Vcc*%
G36*
X87898279Y-41520185D02*
G01*
X87944034Y-41572989D01*
X87953978Y-41642147D01*
X87924953Y-41705703D01*
X87878692Y-41739061D01*
X87850827Y-41750602D01*
X87850814Y-41750609D01*
X87719711Y-41838210D01*
X87719707Y-41838213D01*
X87608213Y-41949707D01*
X87608210Y-41949711D01*
X87520609Y-42080814D01*
X87520602Y-42080827D01*
X87460264Y-42226498D01*
X87460261Y-42226510D01*
X87429500Y-42381153D01*
X87429500Y-42538846D01*
X87460261Y-42693489D01*
X87460264Y-42693501D01*
X87520602Y-42839172D01*
X87520609Y-42839185D01*
X87608210Y-42970288D01*
X87608213Y-42970292D01*
X87719707Y-43081786D01*
X87719711Y-43081789D01*
X87850814Y-43169390D01*
X87850827Y-43169397D01*
X87917750Y-43197117D01*
X87972154Y-43240957D01*
X87994219Y-43307251D01*
X87976940Y-43374951D01*
X87925803Y-43422562D01*
X87890709Y-43433987D01*
X87835750Y-43443158D01*
X87584887Y-43529280D01*
X87584876Y-43529285D01*
X87351611Y-43655521D01*
X87351606Y-43655524D01*
X87142298Y-43818436D01*
X86962652Y-44013584D01*
X86817576Y-44235639D01*
X86711031Y-44478539D01*
X86645918Y-44735667D01*
X86624015Y-44999994D01*
X86624015Y-45000005D01*
X86645918Y-45264332D01*
X86645918Y-45264335D01*
X86645919Y-45264336D01*
X86711032Y-45521462D01*
X86817578Y-45764364D01*
X86962652Y-45986416D01*
X87142296Y-46181562D01*
X87158405Y-46194100D01*
X87341371Y-46336509D01*
X87351609Y-46344477D01*
X87584883Y-46470718D01*
X87835754Y-46556842D01*
X88097379Y-46600500D01*
X88097380Y-46600500D01*
X88362620Y-46600500D01*
X88362621Y-46600500D01*
X88624246Y-46556842D01*
X88875117Y-46470718D01*
X89099349Y-46349369D01*
X89167677Y-46334775D01*
X89233049Y-46359438D01*
X89258136Y-46384791D01*
X89312095Y-46457904D01*
X89372793Y-46502701D01*
X89433491Y-46547498D01*
X89460192Y-46556841D01*
X89575892Y-46597327D01*
X89575896Y-46597327D01*
X89575900Y-46597329D01*
X89592808Y-46598914D01*
X89609712Y-46600500D01*
X89609716Y-46600500D01*
X89770500Y-46600500D01*
X89837539Y-46620185D01*
X89883294Y-46672989D01*
X89894500Y-46724500D01*
X89894500Y-50356233D01*
X89928143Y-50525366D01*
X89928146Y-50525378D01*
X89994138Y-50684698D01*
X89994145Y-50684711D01*
X90089954Y-50828098D01*
X90089957Y-50828102D01*
X91838875Y-52577019D01*
X91872360Y-52638342D01*
X91867376Y-52708034D01*
X91825504Y-52763967D01*
X91773979Y-52786589D01*
X91701311Y-52800172D01*
X91589563Y-52821062D01*
X91589560Y-52821062D01*
X91589560Y-52821063D01*
X91378648Y-52902770D01*
X91378642Y-52902773D01*
X91186334Y-53021845D01*
X91186332Y-53021847D01*
X91019176Y-53174229D01*
X90882864Y-53354736D01*
X90782046Y-53557205D01*
X90782041Y-53557218D01*
X90720141Y-53774772D01*
X90704669Y-53941736D01*
X90678883Y-54006673D01*
X90668879Y-54017975D01*
X89367356Y-55319500D01*
X88941901Y-55744955D01*
X88880927Y-55805929D01*
X88819953Y-55866902D01*
X88724145Y-56010288D01*
X88724138Y-56010301D01*
X88658146Y-56169621D01*
X88658143Y-56169633D01*
X88624500Y-56338766D01*
X88624500Y-61757342D01*
X88604815Y-61824381D01*
X88552011Y-61870136D01*
X88482853Y-61880080D01*
X88419297Y-61851055D01*
X88383458Y-61798296D01*
X88316456Y-61606815D01*
X88295046Y-61572741D01*
X88208494Y-61434995D01*
X88065005Y-61291506D01*
X88003184Y-61252661D01*
X87893184Y-61183543D01*
X87701645Y-61116521D01*
X87701639Y-61116520D01*
X87500004Y-61093802D01*
X87499996Y-61093802D01*
X87298360Y-61116520D01*
X87298354Y-61116521D01*
X87165454Y-61163025D01*
X87095675Y-61166586D01*
X87035048Y-61131857D01*
X87002821Y-61069863D01*
X87000500Y-61045983D01*
X87000500Y-60339711D01*
X86997329Y-60305904D01*
X86997329Y-60305900D01*
X86997327Y-60305896D01*
X86997327Y-60305892D01*
X86947498Y-60163492D01*
X86947498Y-60163491D01*
X86902701Y-60102793D01*
X86857904Y-60042095D01*
X86775660Y-59981397D01*
X86736509Y-59952502D01*
X86736507Y-59952501D01*
X86594107Y-59902672D01*
X86594095Y-59902670D01*
X86560288Y-59899500D01*
X86560284Y-59899500D01*
X84839716Y-59899500D01*
X84839712Y-59899500D01*
X84805904Y-59902670D01*
X84805892Y-59902672D01*
X84663492Y-59952501D01*
X84542095Y-60042095D01*
X84452501Y-60163492D01*
X84402672Y-60305892D01*
X84402670Y-60305904D01*
X84399500Y-60339711D01*
X84399500Y-62060288D01*
X84402670Y-62094095D01*
X84402672Y-62094107D01*
X84440319Y-62201693D01*
X84452502Y-62236509D01*
X84459149Y-62245515D01*
X84542095Y-62357904D01*
X84602793Y-62402701D01*
X84663491Y-62447498D01*
X84706849Y-62462669D01*
X84805892Y-62497327D01*
X84805896Y-62497328D01*
X84805897Y-62497328D01*
X84805900Y-62497329D01*
X84823072Y-62498939D01*
X84887978Y-62524794D01*
X84928605Y-62581638D01*
X84932050Y-62651423D01*
X84897220Y-62711992D01*
X84895034Y-62714034D01*
X84734801Y-62860106D01*
X84589556Y-63052441D01*
X84482129Y-63268182D01*
X84482124Y-63268195D01*
X84416166Y-63500010D01*
X84393929Y-63739999D01*
X84393929Y-63740000D01*
X84416166Y-63979989D01*
X84482124Y-64211804D01*
X84482129Y-64211817D01*
X84589556Y-64427558D01*
X84734803Y-64619896D01*
X84872601Y-64745515D01*
X84912916Y-64782267D01*
X85110447Y-64904573D01*
X85157082Y-64956601D01*
X85168186Y-65025583D01*
X85140233Y-65089617D01*
X85110447Y-65115427D01*
X84912914Y-65237734D01*
X84734803Y-65400103D01*
X84589556Y-65592441D01*
X84482129Y-65808182D01*
X84482124Y-65808195D01*
X84416166Y-66040010D01*
X84393929Y-66279999D01*
X84393929Y-66280000D01*
X84416166Y-66519989D01*
X84482124Y-66751804D01*
X84482129Y-66751817D01*
X84589556Y-66967558D01*
X84734803Y-67159896D01*
X84861672Y-67275552D01*
X84912916Y-67322267D01*
X85110447Y-67444573D01*
X85157082Y-67496601D01*
X85168186Y-67565583D01*
X85140233Y-67629617D01*
X85110447Y-67655427D01*
X84912914Y-67777734D01*
X84734803Y-67940103D01*
X84589556Y-68132441D01*
X84482129Y-68348182D01*
X84482124Y-68348195D01*
X84416166Y-68580010D01*
X84393929Y-68819999D01*
X84393929Y-68820000D01*
X84416166Y-69059989D01*
X84482124Y-69291804D01*
X84482129Y-69291817D01*
X84589556Y-69507558D01*
X84734803Y-69699896D01*
X84888029Y-69839580D01*
X84912916Y-69862267D01*
X85117834Y-69989147D01*
X85342577Y-70076213D01*
X85579491Y-70120500D01*
X85579493Y-70120500D01*
X85820507Y-70120500D01*
X85820509Y-70120500D01*
X86057423Y-70076213D01*
X86282166Y-69989147D01*
X86435223Y-69894377D01*
X86502583Y-69875822D01*
X86569282Y-69896630D01*
X86614144Y-69950196D01*
X86624500Y-69999805D01*
X86624500Y-72025500D01*
X86604815Y-72092539D01*
X86552011Y-72138294D01*
X86500500Y-72149500D01*
X86049712Y-72149500D01*
X86015904Y-72152670D01*
X86015892Y-72152672D01*
X85873492Y-72202501D01*
X85752095Y-72292095D01*
X85662501Y-72413492D01*
X85612672Y-72555892D01*
X85612670Y-72555904D01*
X85609500Y-72589711D01*
X85609500Y-74410288D01*
X85612670Y-74444095D01*
X85612672Y-74444107D01*
X85662501Y-74586507D01*
X85752095Y-74707904D01*
X85812793Y-74752701D01*
X85873491Y-74797498D01*
X85916849Y-74812669D01*
X86015892Y-74847327D01*
X86015896Y-74847327D01*
X86015900Y-74847329D01*
X86032808Y-74848914D01*
X86049712Y-74850500D01*
X86049716Y-74850500D01*
X87870288Y-74850500D01*
X87885313Y-74849090D01*
X87904100Y-74847329D01*
X87904104Y-74847327D01*
X87904107Y-74847327D01*
X87959791Y-74827841D01*
X88046509Y-74797498D01*
X88167904Y-74707904D01*
X88257498Y-74586509D01*
X88300960Y-74462300D01*
X88341680Y-74405528D01*
X88406632Y-74379780D01*
X88475194Y-74393236D01*
X88505681Y-74415577D01*
X88588181Y-74498077D01*
X88621666Y-74559400D01*
X88624500Y-74585758D01*
X88624500Y-75681233D01*
X88658143Y-75850366D01*
X88658146Y-75850378D01*
X88724138Y-76009698D01*
X88724145Y-76009711D01*
X88819954Y-76153098D01*
X88819957Y-76153102D01*
X89137194Y-76470338D01*
X89170679Y-76531661D01*
X89165695Y-76601352D01*
X89123824Y-76657286D01*
X89081606Y-76677794D01*
X88901344Y-76726094D01*
X88901335Y-76726098D01*
X88687171Y-76825964D01*
X88687169Y-76825965D01*
X88493600Y-76961503D01*
X88370289Y-77084814D01*
X88308966Y-77118298D01*
X88239274Y-77113314D01*
X88183341Y-77071442D01*
X88165567Y-77038087D01*
X88122051Y-76913728D01*
X88032546Y-76792453D01*
X87911272Y-76702949D01*
X87769010Y-76653168D01*
X87769001Y-76653166D01*
X87735236Y-76650000D01*
X87075000Y-76650000D01*
X87075000Y-77566988D01*
X87017993Y-77534075D01*
X86890826Y-77500000D01*
X86759174Y-77500000D01*
X86632007Y-77534075D01*
X86575000Y-77566988D01*
X86575000Y-76650000D01*
X85914764Y-76650000D01*
X85880998Y-76653166D01*
X85880989Y-76653168D01*
X85738727Y-76702949D01*
X85617453Y-76792453D01*
X85527949Y-76913727D01*
X85478168Y-77055989D01*
X85478166Y-77055998D01*
X85475000Y-77089763D01*
X85475000Y-77750000D01*
X86391988Y-77750000D01*
X86359075Y-77807007D01*
X86325000Y-77934174D01*
X86325000Y-78065826D01*
X86359075Y-78192993D01*
X86391988Y-78250000D01*
X85475000Y-78250000D01*
X85475000Y-78910236D01*
X85478166Y-78944001D01*
X85478168Y-78944010D01*
X85527949Y-79086272D01*
X85617453Y-79207546D01*
X85738727Y-79297050D01*
X85880989Y-79346831D01*
X85880998Y-79346833D01*
X85914764Y-79350000D01*
X86575000Y-79350000D01*
X86575000Y-78433012D01*
X86632007Y-78465925D01*
X86759174Y-78500000D01*
X86890826Y-78500000D01*
X87017993Y-78465925D01*
X87075000Y-78433012D01*
X87075000Y-79350000D01*
X87735236Y-79350000D01*
X87769001Y-79346833D01*
X87769010Y-79346831D01*
X87911272Y-79297050D01*
X88032546Y-79207546D01*
X88122051Y-79086271D01*
X88165568Y-78961912D01*
X88206290Y-78905136D01*
X88271243Y-78879389D01*
X88339804Y-78892846D01*
X88370290Y-78915186D01*
X88493599Y-79038495D01*
X88561830Y-79086271D01*
X88687165Y-79174032D01*
X88687167Y-79174033D01*
X88687170Y-79174035D01*
X88901337Y-79273903D01*
X89129592Y-79335063D01*
X89300319Y-79350000D01*
X89364999Y-79355659D01*
X89365000Y-79355659D01*
X89365001Y-79355659D01*
X89429681Y-79350000D01*
X89600408Y-79335063D01*
X89828663Y-79273903D01*
X90042830Y-79174035D01*
X90236401Y-79038495D01*
X90403495Y-78871401D01*
X90533425Y-78685842D01*
X90588002Y-78642217D01*
X90657500Y-78635023D01*
X90719855Y-78666546D01*
X90736575Y-78685842D01*
X90866500Y-78871395D01*
X90866505Y-78871401D01*
X91033599Y-79038495D01*
X91101830Y-79086271D01*
X91227165Y-79174032D01*
X91227167Y-79174033D01*
X91227170Y-79174035D01*
X91441337Y-79273903D01*
X91669592Y-79335063D01*
X91840319Y-79350000D01*
X91904999Y-79355659D01*
X91905000Y-79355659D01*
X91905001Y-79355659D01*
X91969681Y-79350000D01*
X92140408Y-79335063D01*
X92368663Y-79273903D01*
X92582830Y-79174035D01*
X92776401Y-79038495D01*
X92943495Y-78871401D01*
X93079035Y-78677830D01*
X93178903Y-78463663D01*
X93240063Y-78235408D01*
X93260659Y-78000000D01*
X93240063Y-77764592D01*
X93178903Y-77536337D01*
X93079035Y-77322171D01*
X92943495Y-77128599D01*
X92943494Y-77128597D01*
X92776402Y-76961506D01*
X92776395Y-76961501D01*
X92582834Y-76825967D01*
X92582830Y-76825965D01*
X92510963Y-76792453D01*
X92368663Y-76726097D01*
X92368659Y-76726096D01*
X92368655Y-76726094D01*
X92140413Y-76664938D01*
X92140403Y-76664936D01*
X91905001Y-76644341D01*
X91904996Y-76644341D01*
X91854539Y-76648755D01*
X91786039Y-76634988D01*
X91756052Y-76612908D01*
X90411819Y-75268675D01*
X90378334Y-75207352D01*
X90375500Y-75180994D01*
X90375500Y-74585758D01*
X90395185Y-74518719D01*
X90411819Y-74498077D01*
X90465801Y-74444095D01*
X90538495Y-74371401D01*
X90668425Y-74185842D01*
X90723002Y-74142217D01*
X90792500Y-74135023D01*
X90854855Y-74166546D01*
X90871575Y-74185842D01*
X91001500Y-74371395D01*
X91001505Y-74371401D01*
X91168599Y-74538495D01*
X91237167Y-74586507D01*
X91362165Y-74674032D01*
X91362167Y-74674033D01*
X91362170Y-74674035D01*
X91576337Y-74773903D01*
X91804592Y-74835063D01*
X91981034Y-74850500D01*
X92039999Y-74855659D01*
X92040000Y-74855659D01*
X92040001Y-74855659D01*
X92098966Y-74850500D01*
X92275408Y-74835063D01*
X92503663Y-74773903D01*
X92717830Y-74674035D01*
X92911401Y-74538495D01*
X93078495Y-74371401D01*
X93214035Y-74177830D01*
X93313903Y-73963663D01*
X93375063Y-73735408D01*
X93395659Y-73500000D01*
X93375063Y-73264592D01*
X93313903Y-73036337D01*
X93214035Y-72822171D01*
X93167264Y-72755374D01*
X93078494Y-72628597D01*
X92911402Y-72461506D01*
X92911395Y-72461501D01*
X92717834Y-72325967D01*
X92717830Y-72325965D01*
X92645198Y-72292096D01*
X92503663Y-72226097D01*
X92503659Y-72226096D01*
X92503655Y-72226094D01*
X92275413Y-72164938D01*
X92275403Y-72164936D01*
X92040001Y-72144341D01*
X92039995Y-72144341D01*
X92010305Y-72146938D01*
X91941805Y-72133170D01*
X91891623Y-72084554D01*
X91875500Y-72023410D01*
X91875500Y-69363899D01*
X91895185Y-69296860D01*
X91947989Y-69251105D01*
X92017147Y-69241161D01*
X92080703Y-69270186D01*
X92110500Y-69308627D01*
X92209556Y-69507558D01*
X92354803Y-69699896D01*
X92508029Y-69839580D01*
X92532916Y-69862267D01*
X92737834Y-69989147D01*
X92962577Y-70076213D01*
X93199491Y-70120500D01*
X93199493Y-70120500D01*
X93440507Y-70120500D01*
X93440509Y-70120500D01*
X93677423Y-70076213D01*
X93902166Y-69989147D01*
X94107084Y-69862267D01*
X94285198Y-69699894D01*
X94430444Y-69507558D01*
X94537875Y-69291807D01*
X94603833Y-69059990D01*
X94626071Y-68820000D01*
X94603833Y-68580010D01*
X94537875Y-68348193D01*
X94529499Y-68331372D01*
X94438688Y-68148999D01*
X94430444Y-68132442D01*
X94285198Y-67940106D01*
X94285196Y-67940103D01*
X94107084Y-67777733D01*
X94107082Y-67777731D01*
X93909553Y-67655427D01*
X93862917Y-67603399D01*
X93851813Y-67534418D01*
X93879766Y-67470383D01*
X93909553Y-67444573D01*
X94012521Y-67380818D01*
X94107084Y-67322267D01*
X94285198Y-67159894D01*
X94430444Y-66967558D01*
X94537875Y-66751807D01*
X94603833Y-66519990D01*
X94626071Y-66280000D01*
X94618810Y-66201645D01*
X94603833Y-66040010D01*
X94546385Y-65838104D01*
X94537875Y-65808193D01*
X94532975Y-65798353D01*
X94485512Y-65703034D01*
X94430444Y-65592442D01*
X94285198Y-65400106D01*
X94285196Y-65400103D01*
X94107084Y-65237733D01*
X94107082Y-65237731D01*
X93909553Y-65115427D01*
X93862917Y-65063399D01*
X93851813Y-64994418D01*
X93879766Y-64930383D01*
X93909553Y-64904573D01*
X94107084Y-64782267D01*
X94285198Y-64619894D01*
X94430444Y-64427558D01*
X94537875Y-64211807D01*
X94603833Y-63979990D01*
X94626071Y-63740000D01*
X94603833Y-63500010D01*
X94537875Y-63268193D01*
X94518120Y-63228520D01*
X94456066Y-63103899D01*
X94430444Y-63052442D01*
X94285198Y-62860106D01*
X94285196Y-62860103D01*
X94107085Y-62697734D01*
X94107084Y-62697733D01*
X93909077Y-62575132D01*
X93862442Y-62523104D01*
X93851338Y-62454122D01*
X93879291Y-62390088D01*
X93909078Y-62364278D01*
X94106779Y-62241868D01*
X94106781Y-62241866D01*
X94284825Y-62079558D01*
X94430016Y-61887294D01*
X94537406Y-61671627D01*
X94537409Y-61671621D01*
X94600465Y-61450000D01*
X93635686Y-61450000D01*
X93640080Y-61445606D01*
X93692741Y-61354394D01*
X93720000Y-61252661D01*
X93720000Y-61147339D01*
X93692741Y-61045606D01*
X93640080Y-60954394D01*
X93635686Y-60950000D01*
X94600465Y-60950000D01*
X94600465Y-60949999D01*
X94537409Y-60728378D01*
X94537406Y-60728372D01*
X94430016Y-60512705D01*
X94284825Y-60320441D01*
X94106781Y-60158133D01*
X94106779Y-60158131D01*
X93901945Y-60031304D01*
X93901939Y-60031301D01*
X93677285Y-59944270D01*
X93677275Y-59944267D01*
X93570001Y-59924213D01*
X93570000Y-59924214D01*
X93570000Y-60884314D01*
X93565606Y-60879920D01*
X93474394Y-60827259D01*
X93372661Y-60800000D01*
X93267339Y-60800000D01*
X93165606Y-60827259D01*
X93074394Y-60879920D01*
X93070000Y-60884314D01*
X93070000Y-59924214D01*
X93069998Y-59924213D01*
X92962724Y-59944267D01*
X92962714Y-59944270D01*
X92738060Y-60031301D01*
X92738054Y-60031304D01*
X92533220Y-60158131D01*
X92533218Y-60158133D01*
X92355174Y-60320441D01*
X92209983Y-60512705D01*
X92102593Y-60728372D01*
X92102590Y-60728378D01*
X92039534Y-60949999D01*
X92039535Y-60950000D01*
X93004314Y-60950000D01*
X92999920Y-60954394D01*
X92947259Y-61045606D01*
X92920000Y-61147339D01*
X92920000Y-61252661D01*
X92947259Y-61354394D01*
X92999920Y-61445606D01*
X93004314Y-61450000D01*
X92039534Y-61450000D01*
X92102590Y-61671621D01*
X92102593Y-61671627D01*
X92209983Y-61887294D01*
X92355174Y-62079558D01*
X92533218Y-62241866D01*
X92533220Y-62241868D01*
X92730921Y-62364278D01*
X92777557Y-62416305D01*
X92788661Y-62485287D01*
X92760708Y-62549322D01*
X92730922Y-62575132D01*
X92532914Y-62697734D01*
X92354803Y-62860103D01*
X92209556Y-63052441D01*
X92102129Y-63268182D01*
X92102124Y-63268195D01*
X92036166Y-63500010D01*
X92013929Y-63739999D01*
X92013929Y-63740000D01*
X92036166Y-63979987D01*
X92047067Y-64018299D01*
X92046479Y-64088166D01*
X92008212Y-64146624D01*
X91944414Y-64175114D01*
X91875342Y-64164589D01*
X91822925Y-64118392D01*
X91816937Y-64107580D01*
X91767007Y-64028117D01*
X91708494Y-63934995D01*
X91565005Y-63791506D01*
X91483034Y-63740000D01*
X91393184Y-63683543D01*
X91201645Y-63616521D01*
X91201639Y-63616520D01*
X91000004Y-63593802D01*
X90999996Y-63593802D01*
X90798360Y-63616520D01*
X90798354Y-63616521D01*
X90606814Y-63683543D01*
X90565472Y-63709521D01*
X90498235Y-63728521D01*
X90431400Y-63708153D01*
X90386186Y-63654885D01*
X90375500Y-63604527D01*
X90375500Y-56839006D01*
X90395185Y-56771967D01*
X90411819Y-56751325D01*
X91906325Y-55256819D01*
X91967648Y-55223334D01*
X91994006Y-55220500D01*
X92038093Y-55220500D01*
X92038096Y-55220500D01*
X92260437Y-55178938D01*
X92471354Y-55097228D01*
X92663667Y-54978153D01*
X92830825Y-54825768D01*
X92967136Y-54645263D01*
X93067958Y-54442784D01*
X93129859Y-54225227D01*
X93135781Y-54161316D01*
X93161567Y-54096380D01*
X93218367Y-54055692D01*
X93288148Y-54052172D01*
X93346933Y-54085077D01*
X95088181Y-55826325D01*
X95121666Y-55887648D01*
X95124500Y-55914006D01*
X95124500Y-65754482D01*
X95117543Y-65795433D01*
X95116521Y-65798353D01*
X95093802Y-65999996D01*
X95093802Y-66000003D01*
X95116520Y-66201639D01*
X95116521Y-66201645D01*
X95183543Y-66393184D01*
X95183544Y-66393185D01*
X95291506Y-66565005D01*
X95434995Y-66708494D01*
X95606815Y-66816456D01*
X95798352Y-66883478D01*
X95798358Y-66883478D01*
X95798360Y-66883479D01*
X95999996Y-66906198D01*
X96000000Y-66906198D01*
X96000004Y-66906198D01*
X96201639Y-66883479D01*
X96201638Y-66883479D01*
X96201648Y-66883478D01*
X96393185Y-66816456D01*
X96565005Y-66708494D01*
X96708494Y-66565005D01*
X96816456Y-66393185D01*
X96883478Y-66201648D01*
X96906198Y-66000000D01*
X96883478Y-65798352D01*
X96882457Y-65795433D01*
X96875500Y-65754482D01*
X96875500Y-55413768D01*
X96875499Y-55413766D01*
X96865016Y-55361063D01*
X96841855Y-55244626D01*
X96814646Y-55178938D01*
X96775861Y-55085301D01*
X96775854Y-55085288D01*
X96680046Y-54941902D01*
X96680045Y-54941901D01*
X96558099Y-54819955D01*
X91681819Y-49943675D01*
X91648334Y-49882352D01*
X91645500Y-49855994D01*
X91645500Y-46724500D01*
X91665185Y-46657461D01*
X91717989Y-46611706D01*
X91769500Y-46600500D01*
X91930288Y-46600500D01*
X91945313Y-46599090D01*
X91964100Y-46597329D01*
X91964104Y-46597327D01*
X91964107Y-46597327D01*
X92019791Y-46577841D01*
X92106509Y-46547498D01*
X92227904Y-46457904D01*
X92317498Y-46336509D01*
X92367329Y-46194100D01*
X92370500Y-46160284D01*
X92370500Y-43839716D01*
X92367329Y-43805900D01*
X92367327Y-43805896D01*
X92367327Y-43805892D01*
X92317498Y-43663492D01*
X92317498Y-43663491D01*
X92272701Y-43602793D01*
X92227904Y-43542095D01*
X92145660Y-43481397D01*
X92106509Y-43452502D01*
X92106507Y-43452501D01*
X91964107Y-43402672D01*
X91964095Y-43402670D01*
X91930288Y-43399500D01*
X91930284Y-43399500D01*
X91213575Y-43399500D01*
X91146536Y-43379815D01*
X91100781Y-43327011D01*
X91090837Y-43257853D01*
X91119862Y-43194297D01*
X91144684Y-43172398D01*
X91204895Y-43132165D01*
X91280289Y-43081789D01*
X91391789Y-42970289D01*
X91479394Y-42839179D01*
X91539737Y-42693497D01*
X91570500Y-42538842D01*
X91570500Y-42381158D01*
X91570500Y-42381155D01*
X91570499Y-42381153D01*
X91539738Y-42226510D01*
X91539737Y-42226503D01*
X91539735Y-42226498D01*
X91479397Y-42080827D01*
X91479390Y-42080814D01*
X91391789Y-41949711D01*
X91391786Y-41949707D01*
X91280292Y-41838213D01*
X91280288Y-41838210D01*
X91149185Y-41750609D01*
X91149172Y-41750602D01*
X91121308Y-41739061D01*
X91066904Y-41695220D01*
X91044839Y-41628926D01*
X91062118Y-41561227D01*
X91113255Y-41513616D01*
X91168760Y-41500500D01*
X97875500Y-41500500D01*
X97942539Y-41520185D01*
X97988294Y-41572989D01*
X97999500Y-41624500D01*
X97999500Y-80375500D01*
X97979815Y-80442539D01*
X97927011Y-80488294D01*
X97875500Y-80499500D01*
X81124500Y-80499500D01*
X81057461Y-80479815D01*
X81011706Y-80427011D01*
X81000500Y-80375500D01*
X81000500Y-56540000D01*
X85619271Y-56540000D01*
X85640140Y-56765226D01*
X85702041Y-56982781D01*
X85702046Y-56982794D01*
X85802864Y-57185263D01*
X85939176Y-57365770D01*
X86106332Y-57518152D01*
X86106334Y-57518154D01*
X86298642Y-57637226D01*
X86298648Y-57637229D01*
X86343329Y-57654538D01*
X86509563Y-57718938D01*
X86731904Y-57760500D01*
X86731907Y-57760500D01*
X86958093Y-57760500D01*
X86958096Y-57760500D01*
X87180437Y-57718938D01*
X87391354Y-57637228D01*
X87583667Y-57518153D01*
X87750825Y-57365768D01*
X87887136Y-57185263D01*
X87987958Y-56982784D01*
X88049859Y-56765227D01*
X88070729Y-56540000D01*
X88049859Y-56314773D01*
X87987958Y-56097216D01*
X87887136Y-55894737D01*
X87750825Y-55714232D01*
X87750823Y-55714229D01*
X87583667Y-55561847D01*
X87583665Y-55561845D01*
X87391357Y-55442773D01*
X87391351Y-55442770D01*
X87225120Y-55378372D01*
X87180437Y-55361062D01*
X86958096Y-55319500D01*
X86731904Y-55319500D01*
X86509563Y-55361062D01*
X86509560Y-55361062D01*
X86509560Y-55361063D01*
X86298648Y-55442770D01*
X86298642Y-55442773D01*
X86106334Y-55561845D01*
X86106332Y-55561847D01*
X85939176Y-55714229D01*
X85802864Y-55894736D01*
X85702046Y-56097205D01*
X85702041Y-56097218D01*
X85640140Y-56314773D01*
X85619271Y-56539999D01*
X85619271Y-56540000D01*
X81000500Y-56540000D01*
X81000500Y-51460000D01*
X85619271Y-51460000D01*
X85640140Y-51685226D01*
X85702041Y-51902781D01*
X85702046Y-51902794D01*
X85802864Y-52105263D01*
X85939176Y-52285770D01*
X86106332Y-52438152D01*
X86106334Y-52438154D01*
X86298642Y-52557226D01*
X86298648Y-52557229D01*
X86343329Y-52574538D01*
X86509563Y-52638938D01*
X86731904Y-52680500D01*
X86731907Y-52680500D01*
X86958093Y-52680500D01*
X86958096Y-52680500D01*
X87180437Y-52638938D01*
X87391354Y-52557228D01*
X87583667Y-52438153D01*
X87750825Y-52285768D01*
X87887136Y-52105263D01*
X87987958Y-51902784D01*
X88049859Y-51685227D01*
X88070729Y-51460000D01*
X88049859Y-51234773D01*
X87987958Y-51017216D01*
X87887136Y-50814737D01*
X87788945Y-50684711D01*
X87750823Y-50634229D01*
X87583667Y-50481847D01*
X87583665Y-50481845D01*
X87391357Y-50362773D01*
X87391351Y-50362770D01*
X87225120Y-50298372D01*
X87180437Y-50281062D01*
X86958096Y-50239500D01*
X86731904Y-50239500D01*
X86509563Y-50281062D01*
X86509560Y-50281062D01*
X86509560Y-50281063D01*
X86298648Y-50362770D01*
X86298642Y-50362773D01*
X86106334Y-50481845D01*
X86106332Y-50481847D01*
X85939176Y-50634229D01*
X85802864Y-50814736D01*
X85702046Y-51017205D01*
X85702041Y-51017218D01*
X85640140Y-51234773D01*
X85619271Y-51459999D01*
X85619271Y-51460000D01*
X81000500Y-51460000D01*
X81000500Y-41624500D01*
X81020185Y-41557461D01*
X81072989Y-41511706D01*
X81124500Y-41500500D01*
X87831240Y-41500500D01*
X87898279Y-41520185D01*
G37*
%TD.AperFunction*%
%TD*%
M02*
