%TF.GenerationSoftware,KiCad,Pcbnew,8.0.0*%
%TF.CreationDate,2025-07-08T12:20:57+05:30*%
%TF.ProjectId,Sensortech_flex,53656e73-6f72-4746-9563-685f666c6578,rev?*%
%TF.SameCoordinates,Original*%
%TF.FileFunction,Copper,L1,Top*%
%TF.FilePolarity,Positive*%
%FSLAX46Y46*%
G04 Gerber Fmt 4.6, Leading zero omitted, Abs format (unit mm)*
G04 Created by KiCad (PCBNEW 8.0.0) date 2025-07-08 12:20:57*
%MOMM*%
%LPD*%
G01*
G04 APERTURE LIST*
G04 Aperture macros list*
%AMRoundRect*
0 Rectangle with rounded corners*
0 $1 Rounding radius*
0 $2 $3 $4 $5 $6 $7 $8 $9 X,Y pos of 4 corners*
0 Add a 4 corners polygon primitive as box body*
4,1,4,$2,$3,$4,$5,$6,$7,$8,$9,$2,$3,0*
0 Add four circle primitives for the rounded corners*
1,1,$1+$1,$2,$3*
1,1,$1+$1,$4,$5*
1,1,$1+$1,$6,$7*
1,1,$1+$1,$8,$9*
0 Add four rect primitives between the rounded corners*
20,1,$1+$1,$2,$3,$4,$5,0*
20,1,$1+$1,$4,$5,$6,$7,0*
20,1,$1+$1,$6,$7,$8,$9,0*
20,1,$1+$1,$8,$9,$2,$3,0*%
G04 Aperture macros list end*
%TA.AperFunction,SMDPad,CuDef*%
%ADD10RoundRect,0.250000X0.450000X-0.350000X0.450000X0.350000X-0.450000X0.350000X-0.450000X-0.350000X0*%
%TD*%
%TA.AperFunction,ComponentPad*%
%ADD11R,2.200000X2.200000*%
%TD*%
%TA.AperFunction,ComponentPad*%
%ADD12C,2.200000*%
%TD*%
%TA.AperFunction,ComponentPad*%
%ADD13R,1.700000X1.700000*%
%TD*%
%TA.AperFunction,ComponentPad*%
%ADD14O,1.700000X1.700000*%
%TD*%
%TA.AperFunction,SMDPad,CuDef*%
%ADD15RoundRect,0.250000X-0.450000X0.325000X-0.450000X-0.325000X0.450000X-0.325000X0.450000X0.325000X0*%
%TD*%
%TA.AperFunction,SMDPad,CuDef*%
%ADD16RoundRect,0.250000X-0.450000X0.350000X-0.450000X-0.350000X0.450000X-0.350000X0.450000X0.350000X0*%
%TD*%
%TA.AperFunction,ComponentPad*%
%ADD17C,1.440000*%
%TD*%
%TA.AperFunction,ComponentPad*%
%ADD18R,1.600000X1.600000*%
%TD*%
%TA.AperFunction,ComponentPad*%
%ADD19O,1.600000X1.600000*%
%TD*%
%TA.AperFunction,ViaPad*%
%ADD20C,0.800000*%
%TD*%
%TA.AperFunction,Conductor*%
%ADD21C,0.750000*%
%TD*%
G04 APERTURE END LIST*
D10*
%TO.P,R2,1*%
%TO.N,Vcc*%
X96000000Y-60500000D03*
%TO.P,R2,2*%
%TO.N,Net-(R2-Pad2)*%
X96000000Y-58500000D03*
%TD*%
%TO.P,R4,1*%
%TO.N,Vcc*%
X83000000Y-78500000D03*
%TO.P,R4,2*%
%TO.N,Net-(D1-A)*%
X83000000Y-76500000D03*
%TD*%
D11*
%TO.P,J1,1,Pin_1*%
%TO.N,A*%
X90770000Y-45000000D03*
D12*
%TO.P,J1,2,Pin_2*%
%TO.N,gnd*%
X88230000Y-45000000D03*
%TD*%
D13*
%TO.P,J2,1,Pin_1*%
%TO.N,Vcc*%
X86825000Y-78000000D03*
D14*
%TO.P,J2,2,Pin_2*%
%TO.N,gnd*%
X89365000Y-78000000D03*
%TO.P,J2,3,Pin_3*%
%TO.N,Do*%
X91905000Y-78000000D03*
%TD*%
D15*
%TO.P,D1,1,K*%
%TO.N,gnd*%
X83000000Y-71975000D03*
%TO.P,D1,2,A*%
%TO.N,Net-(D1-A)*%
X83000000Y-74025000D03*
%TD*%
D13*
%TO.P,J3,1,Pin_1*%
%TO.N,H*%
X86960000Y-73500000D03*
D14*
%TO.P,J3,2,Pin_2*%
%TO.N,Do*%
X89500000Y-73500000D03*
%TO.P,J3,3,Pin_3*%
%TO.N,L*%
X92040000Y-73500000D03*
%TD*%
D16*
%TO.P,R1,1*%
%TO.N,Vcc*%
X96000000Y-62500000D03*
%TO.P,R1,2*%
%TO.N,A*%
X96000000Y-64500000D03*
%TD*%
D17*
%TO.P,RV1,1,1*%
%TO.N,Net-(R3-Pad1)*%
X86845000Y-56540000D03*
%TO.P,RV1,2,2*%
%TO.N,B*%
X91925000Y-54000000D03*
%TO.P,RV1,3,3*%
%TO.N,Net-(R2-Pad2)*%
X86845000Y-51460000D03*
%TD*%
D15*
%TO.P,D2,1,K*%
%TO.N,gnd*%
X96000000Y-71975000D03*
%TO.P,D2,2,A*%
%TO.N,Net-(D2-A)*%
X96000000Y-74025000D03*
%TD*%
D18*
%TO.P,U1,1*%
%TO.N,H*%
X85700000Y-61200000D03*
D19*
%TO.P,U1,2,-*%
%TO.N,B*%
X85700000Y-63740000D03*
%TO.P,U1,3,+*%
%TO.N,A*%
X85700000Y-66280000D03*
%TO.P,U1,4,V-*%
%TO.N,gnd*%
X85700000Y-68820000D03*
%TO.P,U1,5,+*%
%TO.N,B*%
X93320000Y-68820000D03*
%TO.P,U1,6,-*%
%TO.N,A*%
X93320000Y-66280000D03*
%TO.P,U1,7*%
%TO.N,L*%
X93320000Y-63740000D03*
%TO.P,U1,8,V+*%
%TO.N,Vcc*%
X93320000Y-61200000D03*
%TD*%
D16*
%TO.P,R3,1*%
%TO.N,Net-(R3-Pad1)*%
X83000000Y-67500000D03*
%TO.P,R3,2*%
%TO.N,gnd*%
X83000000Y-69500000D03*
%TD*%
D10*
%TO.P,R5,1*%
%TO.N,Do*%
X96000000Y-78500000D03*
%TO.P,R5,2*%
%TO.N,Net-(D2-A)*%
X96000000Y-76500000D03*
%TD*%
D20*
%TO.N,A*%
X96000000Y-66000000D03*
%TO.N,L*%
X91000000Y-64500000D03*
%TO.N,H*%
X87500000Y-62000000D03*
%TO.N,B*%
X89500000Y-67500000D03*
X89000000Y-64000000D03*
%TD*%
D21*
%TO.N,Net-(D1-A)*%
X83000000Y-76500000D02*
X83000000Y-74025000D01*
%TO.N,gnd*%
X85500000Y-75500000D02*
X86865000Y-75500000D01*
X83000000Y-69500000D02*
X85000000Y-69500000D01*
X82000000Y-47380000D02*
X84380000Y-45000000D01*
X86865000Y-75500000D02*
X89365000Y-78000000D01*
X83000000Y-71975000D02*
X84500000Y-73475000D01*
X94000000Y-73975000D02*
X94000000Y-74000000D01*
X84380000Y-45000000D02*
X87730000Y-45000000D01*
X82000000Y-47500000D02*
X82000000Y-47380000D01*
X93889745Y-74000000D02*
X89889745Y-78000000D01*
X94000000Y-74000000D02*
X93889745Y-74000000D01*
X96000000Y-71975000D02*
X94000000Y-73975000D01*
X84500000Y-73475000D02*
X84500000Y-74500000D01*
X81725000Y-47775000D02*
X82000000Y-47500000D01*
X85000000Y-69500000D02*
X85690000Y-68810000D01*
X89889745Y-78000000D02*
X89365000Y-78000000D01*
X84500000Y-74500000D02*
X85500000Y-75500000D01*
X87730000Y-45000000D02*
X88230000Y-44500000D01*
X83000000Y-71975000D02*
X83000000Y-69500000D01*
X83000000Y-69500000D02*
X81725000Y-68225000D01*
X81725000Y-68225000D02*
X81725000Y-47775000D01*
%TO.N,Net-(D2-A)*%
X96000000Y-74025000D02*
X96000000Y-76500000D01*
%TO.N,A*%
X96000000Y-64500000D02*
X95080000Y-64500000D01*
X93310000Y-66270000D02*
X85690000Y-66270000D01*
X95080000Y-64500000D02*
X93310000Y-66270000D01*
X95730000Y-66270000D02*
X93310000Y-66270000D01*
X96000000Y-66000000D02*
X95730000Y-66270000D01*
%TO.N,Vcc*%
X93310000Y-61190000D02*
X95310000Y-61190000D01*
X83000000Y-78500000D02*
X84175000Y-79675000D01*
X94690000Y-61190000D02*
X96000000Y-62500000D01*
X84175000Y-79675000D02*
X96825000Y-79675000D01*
X97500000Y-64000000D02*
X96000000Y-62500000D01*
X96825000Y-79675000D02*
X97500000Y-79000000D01*
X86825000Y-78000000D02*
X83500000Y-78000000D01*
X97500000Y-79000000D02*
X97500000Y-64000000D01*
X95310000Y-61190000D02*
X96000000Y-60500000D01*
X93310000Y-61190000D02*
X94690000Y-61190000D01*
X83500000Y-78000000D02*
X83000000Y-78500000D01*
%TO.N,Do*%
X96000000Y-78500000D02*
X92405000Y-78500000D01*
X92405000Y-78500000D02*
X91905000Y-78000000D01*
%TO.N,L*%
X91770000Y-63730000D02*
X91000000Y-64500000D01*
X93310000Y-63730000D02*
X91770000Y-63730000D01*
%TO.N,H*%
X85690000Y-61190000D02*
X86690000Y-61190000D01*
X86690000Y-61190000D02*
X87500000Y-62000000D01*
%TO.N,Net-(R2-Pad2)*%
X93885000Y-58500000D02*
X96000000Y-58500000D01*
X86845000Y-51460000D02*
X93885000Y-58500000D01*
%TO.N,Net-(R3-Pad1)*%
X83000000Y-67500000D02*
X83000000Y-60385000D01*
X83000000Y-60385000D02*
X86845000Y-56540000D01*
%TO.N,B*%
X93310000Y-68810000D02*
X90810000Y-68810000D01*
X88730000Y-63730000D02*
X89000000Y-64000000D01*
X90810000Y-68810000D02*
X89500000Y-67500000D01*
X85690000Y-63730000D02*
X88730000Y-63730000D01*
%TD*%
%TA.AperFunction,Conductor*%
%TO.N,gnd*%
G36*
X87898279Y-41520185D02*
G01*
X87944034Y-41572989D01*
X87953978Y-41642147D01*
X87924953Y-41705703D01*
X87878692Y-41739061D01*
X87850827Y-41750602D01*
X87850814Y-41750609D01*
X87719711Y-41838210D01*
X87719707Y-41838213D01*
X87608213Y-41949707D01*
X87608210Y-41949711D01*
X87520609Y-42080814D01*
X87520602Y-42080827D01*
X87460264Y-42226498D01*
X87460261Y-42226510D01*
X87429500Y-42381153D01*
X87429500Y-42538846D01*
X87460261Y-42693489D01*
X87460264Y-42693501D01*
X87520602Y-42839172D01*
X87520609Y-42839185D01*
X87608210Y-42970288D01*
X87608213Y-42970292D01*
X87719707Y-43081786D01*
X87719711Y-43081789D01*
X87850814Y-43169390D01*
X87850827Y-43169397D01*
X87918621Y-43197478D01*
X87973025Y-43241319D01*
X87995090Y-43307613D01*
X87977811Y-43375312D01*
X87926674Y-43422923D01*
X87891579Y-43434348D01*
X87835873Y-43443643D01*
X87585091Y-43529738D01*
X87585077Y-43529744D01*
X87351887Y-43655940D01*
X87288685Y-43705130D01*
X87288685Y-43705131D01*
X88059765Y-44476212D01*
X88017708Y-44487482D01*
X87892292Y-44559890D01*
X87789890Y-44662292D01*
X87717482Y-44787708D01*
X87706212Y-44829765D01*
X86934315Y-44057868D01*
X86818018Y-44235874D01*
X86711505Y-44478701D01*
X86646413Y-44735742D01*
X86646411Y-44735754D01*
X86624516Y-44999994D01*
X86624516Y-45000005D01*
X86646411Y-45264245D01*
X86646413Y-45264257D01*
X86711505Y-45521298D01*
X86818017Y-45764122D01*
X86934315Y-45942130D01*
X87706212Y-45170233D01*
X87717482Y-45212292D01*
X87789890Y-45337708D01*
X87892292Y-45440110D01*
X88017708Y-45512518D01*
X88059765Y-45523787D01*
X87288685Y-46294867D01*
X87288685Y-46294868D01*
X87351880Y-46344055D01*
X87351885Y-46344058D01*
X87585077Y-46470255D01*
X87585091Y-46470261D01*
X87835874Y-46556356D01*
X88097420Y-46600000D01*
X88362580Y-46600000D01*
X88624125Y-46556356D01*
X88874908Y-46470261D01*
X88874916Y-46470258D01*
X89099048Y-46348964D01*
X89167377Y-46334369D01*
X89232749Y-46359032D01*
X89257836Y-46384385D01*
X89312095Y-46457904D01*
X89372793Y-46502701D01*
X89433491Y-46547498D01*
X89458806Y-46556356D01*
X89575892Y-46597327D01*
X89575896Y-46597327D01*
X89575900Y-46597329D01*
X89592808Y-46598914D01*
X89609712Y-46600500D01*
X89609716Y-46600500D01*
X91930288Y-46600500D01*
X91945313Y-46599090D01*
X91964100Y-46597329D01*
X91964104Y-46597327D01*
X91964107Y-46597327D01*
X92019791Y-46577841D01*
X92106509Y-46547498D01*
X92227904Y-46457904D01*
X92317498Y-46336509D01*
X92367329Y-46194100D01*
X92370500Y-46160284D01*
X92370500Y-43839716D01*
X92367329Y-43805900D01*
X92367327Y-43805896D01*
X92367327Y-43805892D01*
X92317498Y-43663492D01*
X92317498Y-43663491D01*
X92272701Y-43602793D01*
X92227904Y-43542095D01*
X92145660Y-43481397D01*
X92106509Y-43452502D01*
X92106507Y-43452501D01*
X91964107Y-43402672D01*
X91964095Y-43402670D01*
X91930288Y-43399500D01*
X91930284Y-43399500D01*
X91213575Y-43399500D01*
X91146536Y-43379815D01*
X91100781Y-43327011D01*
X91090837Y-43257853D01*
X91119862Y-43194297D01*
X91144684Y-43172398D01*
X91204895Y-43132165D01*
X91280289Y-43081789D01*
X91391789Y-42970289D01*
X91479394Y-42839179D01*
X91539737Y-42693497D01*
X91570500Y-42538842D01*
X91570500Y-42381158D01*
X91570500Y-42381155D01*
X91570499Y-42381153D01*
X91539738Y-42226510D01*
X91539737Y-42226503D01*
X91539735Y-42226498D01*
X91479397Y-42080827D01*
X91479390Y-42080814D01*
X91391789Y-41949711D01*
X91391786Y-41949707D01*
X91280292Y-41838213D01*
X91280288Y-41838210D01*
X91149185Y-41750609D01*
X91149172Y-41750602D01*
X91121308Y-41739061D01*
X91066904Y-41695220D01*
X91044839Y-41628926D01*
X91062118Y-41561227D01*
X91113255Y-41513616D01*
X91168760Y-41500500D01*
X97875500Y-41500500D01*
X97942539Y-41520185D01*
X97988294Y-41572989D01*
X97999500Y-41624500D01*
X97999500Y-62961994D01*
X97979815Y-63029033D01*
X97927011Y-63074788D01*
X97857853Y-63084732D01*
X97794297Y-63055707D01*
X97787819Y-63049675D01*
X97236818Y-62498674D01*
X97203333Y-62437351D01*
X97200499Y-62410993D01*
X97200499Y-62089337D01*
X97193629Y-62013731D01*
X97193628Y-62013728D01*
X97193628Y-62013725D01*
X97139407Y-61839723D01*
X97139406Y-61839721D01*
X97045124Y-61683758D01*
X97045120Y-61683753D01*
X96949048Y-61587681D01*
X96915563Y-61526358D01*
X96920547Y-61456666D01*
X96949048Y-61412319D01*
X97045120Y-61316247D01*
X97060077Y-61291506D01*
X97102184Y-61221851D01*
X97139407Y-61160277D01*
X97193628Y-60986275D01*
X97200500Y-60910655D01*
X97200499Y-60089346D01*
X97200499Y-60089345D01*
X97200499Y-60089337D01*
X97193629Y-60013731D01*
X97193628Y-60013728D01*
X97193628Y-60013725D01*
X97139407Y-59839723D01*
X97139406Y-59839721D01*
X97045124Y-59683758D01*
X97045120Y-59683753D01*
X96949048Y-59587681D01*
X96915563Y-59526358D01*
X96920547Y-59456666D01*
X96949048Y-59412319D01*
X96985868Y-59375499D01*
X97045120Y-59316247D01*
X97069539Y-59275854D01*
X97127457Y-59180045D01*
X97139407Y-59160277D01*
X97193628Y-58986275D01*
X97200500Y-58910655D01*
X97200499Y-58089346D01*
X97200499Y-58089337D01*
X97193629Y-58013731D01*
X97193628Y-58013728D01*
X97193628Y-58013725D01*
X97139407Y-57839723D01*
X97113471Y-57796819D01*
X97045124Y-57683758D01*
X97045120Y-57683753D01*
X96916246Y-57554879D01*
X96916241Y-57554875D01*
X96760278Y-57460593D01*
X96760274Y-57460591D01*
X96586275Y-57406372D01*
X96586277Y-57406372D01*
X96556027Y-57403623D01*
X96510655Y-57399500D01*
X96510652Y-57399500D01*
X95489337Y-57399500D01*
X95413731Y-57406370D01*
X95413724Y-57406372D01*
X95239725Y-57460591D01*
X95239721Y-57460593D01*
X95083758Y-57554875D01*
X95083753Y-57554879D01*
X95050452Y-57588181D01*
X94989129Y-57621666D01*
X94962771Y-57624500D01*
X94299006Y-57624500D01*
X94231967Y-57604815D01*
X94211325Y-57588181D01*
X92040612Y-55417468D01*
X92007127Y-55356145D01*
X92012111Y-55286453D01*
X92053983Y-55230520D01*
X92105506Y-55207898D01*
X92260437Y-55178938D01*
X92471354Y-55097228D01*
X92663667Y-54978153D01*
X92830825Y-54825768D01*
X92967136Y-54645263D01*
X93067958Y-54442784D01*
X93129859Y-54225227D01*
X93150729Y-54000000D01*
X93142926Y-53915796D01*
X93129859Y-53774773D01*
X93067958Y-53557216D01*
X92967136Y-53354737D01*
X92830825Y-53174232D01*
X92830823Y-53174229D01*
X92663667Y-53021847D01*
X92663665Y-53021845D01*
X92471357Y-52902773D01*
X92471351Y-52902770D01*
X92305120Y-52838372D01*
X92260437Y-52821062D01*
X92038096Y-52779500D01*
X91811904Y-52779500D01*
X91589563Y-52821062D01*
X91589560Y-52821062D01*
X91589560Y-52821063D01*
X91378648Y-52902770D01*
X91378642Y-52902773D01*
X91186334Y-53021845D01*
X91186332Y-53021847D01*
X91019176Y-53174229D01*
X90882864Y-53354736D01*
X90782046Y-53557205D01*
X90782041Y-53557218D01*
X90720140Y-53774774D01*
X90717187Y-53806651D01*
X90691401Y-53871589D01*
X90634600Y-53912276D01*
X90564819Y-53915796D01*
X90506035Y-53882891D01*
X88101120Y-51477976D01*
X88067635Y-51416653D01*
X88065330Y-51401736D01*
X88049859Y-51234773D01*
X87987958Y-51017216D01*
X87887136Y-50814737D01*
X87750825Y-50634232D01*
X87750823Y-50634229D01*
X87583667Y-50481847D01*
X87583665Y-50481845D01*
X87391357Y-50362773D01*
X87391351Y-50362770D01*
X87225120Y-50298372D01*
X87180437Y-50281062D01*
X86958096Y-50239500D01*
X86731904Y-50239500D01*
X86509563Y-50281062D01*
X86509560Y-50281062D01*
X86509560Y-50281063D01*
X86298648Y-50362770D01*
X86298642Y-50362773D01*
X86106334Y-50481845D01*
X86106332Y-50481847D01*
X85939176Y-50634229D01*
X85802864Y-50814736D01*
X85702046Y-51017205D01*
X85702041Y-51017218D01*
X85640140Y-51234773D01*
X85619271Y-51459999D01*
X85619271Y-51460000D01*
X85640140Y-51685226D01*
X85702041Y-51902781D01*
X85702046Y-51902794D01*
X85802864Y-52105263D01*
X85939176Y-52285770D01*
X86106332Y-52438152D01*
X86106334Y-52438154D01*
X86298642Y-52557226D01*
X86298648Y-52557229D01*
X86343329Y-52574538D01*
X86509563Y-52638938D01*
X86731904Y-52680500D01*
X86775994Y-52680500D01*
X86843033Y-52700185D01*
X86863675Y-52716819D01*
X93326897Y-59180042D01*
X93326901Y-59180045D01*
X93470288Y-59275854D01*
X93470301Y-59275861D01*
X93629621Y-59341853D01*
X93629626Y-59341855D01*
X93798766Y-59375499D01*
X93798769Y-59375500D01*
X93798771Y-59375500D01*
X93971229Y-59375500D01*
X94962771Y-59375500D01*
X95029810Y-59395185D01*
X95050452Y-59411819D01*
X95050951Y-59412318D01*
X95084436Y-59473641D01*
X95079452Y-59543333D01*
X95050952Y-59587679D01*
X94954879Y-59683752D01*
X94954875Y-59683758D01*
X94860593Y-59839721D01*
X94860591Y-59839725D01*
X94806372Y-60013723D01*
X94799500Y-60089347D01*
X94799500Y-60190500D01*
X94779815Y-60257539D01*
X94727011Y-60303294D01*
X94675500Y-60314500D01*
X94327087Y-60314500D01*
X94260048Y-60294815D01*
X94243549Y-60282137D01*
X94107085Y-60157734D01*
X94107084Y-60157733D01*
X93902166Y-60030853D01*
X93677423Y-59943787D01*
X93440509Y-59899500D01*
X93199491Y-59899500D01*
X92962577Y-59943787D01*
X92894137Y-59970301D01*
X92737836Y-60030852D01*
X92737835Y-60030852D01*
X92532914Y-60157734D01*
X92354803Y-60320103D01*
X92209556Y-60512441D01*
X92102129Y-60728182D01*
X92102124Y-60728195D01*
X92036166Y-60960010D01*
X92013929Y-61199999D01*
X92013929Y-61200000D01*
X92036166Y-61439989D01*
X92102124Y-61671804D01*
X92102129Y-61671817D01*
X92209556Y-61887558D01*
X92354803Y-62079896D01*
X92488349Y-62201639D01*
X92532916Y-62242267D01*
X92719676Y-62357904D01*
X92730447Y-62364573D01*
X92777082Y-62416601D01*
X92788186Y-62485583D01*
X92760233Y-62549617D01*
X92730447Y-62575427D01*
X92532914Y-62697734D01*
X92396451Y-62822137D01*
X92333647Y-62852754D01*
X92312913Y-62854500D01*
X91683768Y-62854500D01*
X91514633Y-62888143D01*
X91514621Y-62888146D01*
X91355301Y-62954138D01*
X91355288Y-62954145D01*
X91211901Y-63049954D01*
X91211897Y-63049957D01*
X90540002Y-63721852D01*
X90518295Y-63739164D01*
X90434993Y-63791507D01*
X90291506Y-63934994D01*
X90183543Y-64106815D01*
X90116521Y-64298354D01*
X90116520Y-64298360D01*
X90093802Y-64499996D01*
X90093802Y-64500003D01*
X90116520Y-64701639D01*
X90116521Y-64701645D01*
X90183543Y-64893184D01*
X90291506Y-65065005D01*
X90409320Y-65182819D01*
X90442805Y-65244142D01*
X90437821Y-65313834D01*
X90395949Y-65369767D01*
X90330485Y-65394184D01*
X90321639Y-65394500D01*
X86707087Y-65394500D01*
X86640048Y-65374815D01*
X86623549Y-65362137D01*
X86487084Y-65237733D01*
X86487082Y-65237731D01*
X86289553Y-65115427D01*
X86242917Y-65063399D01*
X86231813Y-64994418D01*
X86259766Y-64930383D01*
X86289553Y-64904573D01*
X86487082Y-64782268D01*
X86487081Y-64782268D01*
X86487084Y-64782267D01*
X86570867Y-64705888D01*
X86645488Y-64637863D01*
X86708292Y-64607246D01*
X86729026Y-64605500D01*
X88280639Y-64605500D01*
X88347678Y-64625185D01*
X88368319Y-64641818D01*
X88434995Y-64708494D01*
X88606815Y-64816456D01*
X88798352Y-64883478D01*
X88798358Y-64883478D01*
X88798360Y-64883479D01*
X88999996Y-64906198D01*
X89000000Y-64906198D01*
X89000004Y-64906198D01*
X89201639Y-64883479D01*
X89201638Y-64883479D01*
X89201648Y-64883478D01*
X89393185Y-64816456D01*
X89565005Y-64708494D01*
X89708494Y-64565005D01*
X89816456Y-64393185D01*
X89883478Y-64201648D01*
X89906198Y-64000000D01*
X89903943Y-63979990D01*
X89883479Y-63798360D01*
X89883478Y-63798354D01*
X89883478Y-63798352D01*
X89816456Y-63606815D01*
X89708494Y-63434995D01*
X89565005Y-63291506D01*
X89565004Y-63291505D01*
X89481704Y-63239164D01*
X89459995Y-63221851D01*
X89288102Y-63049957D01*
X89288098Y-63049954D01*
X89144711Y-62954145D01*
X89144698Y-62954138D01*
X88985378Y-62888146D01*
X88985366Y-62888143D01*
X88816232Y-62854500D01*
X88816229Y-62854500D01*
X88218361Y-62854500D01*
X88151322Y-62834815D01*
X88105567Y-62782011D01*
X88095623Y-62712853D01*
X88124648Y-62649297D01*
X88130680Y-62642819D01*
X88208494Y-62565005D01*
X88316456Y-62393185D01*
X88383478Y-62201648D01*
X88406198Y-62000000D01*
X88388139Y-61839723D01*
X88383479Y-61798360D01*
X88383478Y-61798354D01*
X88383478Y-61798352D01*
X88316456Y-61606815D01*
X88208494Y-61434995D01*
X88065005Y-61291506D01*
X88065004Y-61291505D01*
X87981704Y-61239164D01*
X87959995Y-61221851D01*
X87248102Y-60509957D01*
X87248094Y-60509951D01*
X87104707Y-60414143D01*
X87104703Y-60414141D01*
X87072505Y-60400804D01*
X87018102Y-60356963D01*
X86998812Y-60312692D01*
X86997329Y-60305905D01*
X86997329Y-60305900D01*
X86994834Y-60298771D01*
X86947498Y-60163492D01*
X86947498Y-60163491D01*
X86892770Y-60089337D01*
X86857904Y-60042095D01*
X86775660Y-59981397D01*
X86736509Y-59952502D01*
X86736507Y-59952501D01*
X86594107Y-59902672D01*
X86594095Y-59902670D01*
X86560288Y-59899500D01*
X86560284Y-59899500D01*
X85023005Y-59899500D01*
X84955966Y-59879815D01*
X84910211Y-59827011D01*
X84900267Y-59757853D01*
X84929292Y-59694297D01*
X84935324Y-59687819D01*
X86826325Y-57796819D01*
X86887648Y-57763334D01*
X86914006Y-57760500D01*
X86958093Y-57760500D01*
X86958096Y-57760500D01*
X87180437Y-57718938D01*
X87391354Y-57637228D01*
X87583667Y-57518153D01*
X87750825Y-57365768D01*
X87887136Y-57185263D01*
X87987958Y-56982784D01*
X88049859Y-56765227D01*
X88070729Y-56540000D01*
X88049859Y-56314773D01*
X87987958Y-56097216D01*
X87887136Y-55894737D01*
X87750825Y-55714232D01*
X87750823Y-55714229D01*
X87583667Y-55561847D01*
X87583665Y-55561845D01*
X87391357Y-55442773D01*
X87391351Y-55442770D01*
X87225120Y-55378372D01*
X87180437Y-55361062D01*
X86958096Y-55319500D01*
X86731904Y-55319500D01*
X86509563Y-55361062D01*
X86509560Y-55361062D01*
X86509560Y-55361063D01*
X86298648Y-55442770D01*
X86298642Y-55442773D01*
X86106334Y-55561845D01*
X86106332Y-55561847D01*
X85939176Y-55714229D01*
X85802864Y-55894736D01*
X85702046Y-56097205D01*
X85702041Y-56097218D01*
X85640141Y-56314772D01*
X85624669Y-56481736D01*
X85598883Y-56546673D01*
X85588879Y-56557975D01*
X83160581Y-58986275D01*
X82441901Y-59704955D01*
X82389003Y-59757853D01*
X82319953Y-59826902D01*
X82224145Y-59970288D01*
X82224138Y-59970301D01*
X82158146Y-60129621D01*
X82158143Y-60129633D01*
X82124500Y-60298766D01*
X82124500Y-66462770D01*
X82104815Y-66529809D01*
X82088182Y-66550451D01*
X81954875Y-66683758D01*
X81860593Y-66839721D01*
X81860591Y-66839725D01*
X81806372Y-67013723D01*
X81799500Y-67089347D01*
X81799500Y-67910662D01*
X81806370Y-67986268D01*
X81806372Y-67986275D01*
X81860591Y-68160274D01*
X81860593Y-68160278D01*
X81954875Y-68316241D01*
X81954879Y-68316246D01*
X82051304Y-68412671D01*
X82084789Y-68473994D01*
X82079805Y-68543686D01*
X82051305Y-68588033D01*
X81955277Y-68684061D01*
X81861051Y-68839928D01*
X81806865Y-69013819D01*
X81800000Y-69089377D01*
X81800000Y-69250000D01*
X84199999Y-69250000D01*
X84199999Y-69187339D01*
X84219684Y-69120300D01*
X84245822Y-69097650D01*
X84228406Y-69088045D01*
X84195180Y-69026582D01*
X84193607Y-69016192D01*
X84193133Y-69013812D01*
X84138949Y-68839931D01*
X84044721Y-68684059D01*
X83948695Y-68588033D01*
X83915210Y-68526710D01*
X83920194Y-68457018D01*
X83948691Y-68412675D01*
X84045120Y-68316247D01*
X84139407Y-68160277D01*
X84193628Y-67986275D01*
X84200500Y-67910655D01*
X84200499Y-67089346D01*
X84200499Y-67089345D01*
X84200499Y-67089337D01*
X84193629Y-67013731D01*
X84193628Y-67013728D01*
X84193628Y-67013725D01*
X84139407Y-66839723D01*
X84130703Y-66825324D01*
X84045124Y-66683758D01*
X84045123Y-66683757D01*
X84045121Y-66683755D01*
X84045120Y-66683753D01*
X83916247Y-66554880D01*
X83916246Y-66554879D01*
X83911818Y-66550451D01*
X83878334Y-66489128D01*
X83875500Y-66462770D01*
X83875500Y-60799005D01*
X83895185Y-60731966D01*
X83911815Y-60711328D01*
X84187820Y-60435323D01*
X84249142Y-60401839D01*
X84318834Y-60406823D01*
X84374767Y-60448695D01*
X84399184Y-60514159D01*
X84399500Y-60523005D01*
X84399500Y-62060288D01*
X84402670Y-62094095D01*
X84402672Y-62094107D01*
X84452501Y-62236507D01*
X84452502Y-62236509D01*
X84456752Y-62242267D01*
X84542095Y-62357904D01*
X84586103Y-62390383D01*
X84663491Y-62447498D01*
X84688397Y-62456213D01*
X84805892Y-62497327D01*
X84805896Y-62497328D01*
X84805897Y-62497328D01*
X84805900Y-62497329D01*
X84823072Y-62498939D01*
X84887978Y-62524794D01*
X84928605Y-62581638D01*
X84932050Y-62651423D01*
X84897220Y-62711992D01*
X84895034Y-62714034D01*
X84734801Y-62860106D01*
X84589556Y-63052441D01*
X84482129Y-63268182D01*
X84482124Y-63268195D01*
X84416166Y-63500010D01*
X84393929Y-63739999D01*
X84393929Y-63740000D01*
X84416166Y-63979989D01*
X84482124Y-64211804D01*
X84482129Y-64211817D01*
X84589556Y-64427558D01*
X84734803Y-64619896D01*
X84831990Y-64708493D01*
X84912916Y-64782267D01*
X85076379Y-64883479D01*
X85110447Y-64904573D01*
X85157082Y-64956601D01*
X85168186Y-65025583D01*
X85140233Y-65089617D01*
X85110447Y-65115427D01*
X84912914Y-65237734D01*
X84734803Y-65400103D01*
X84589556Y-65592441D01*
X84482129Y-65808182D01*
X84482124Y-65808195D01*
X84416166Y-66040010D01*
X84393929Y-66279999D01*
X84393929Y-66280000D01*
X84416166Y-66519989D01*
X84482124Y-66751804D01*
X84482129Y-66751817D01*
X84589556Y-66967558D01*
X84734803Y-67159896D01*
X84886683Y-67298352D01*
X84912916Y-67322267D01*
X85110447Y-67444573D01*
X85110922Y-67444867D01*
X85157557Y-67496895D01*
X85168661Y-67565877D01*
X85140708Y-67629911D01*
X85110921Y-67655721D01*
X84913220Y-67778131D01*
X84913218Y-67778133D01*
X84735174Y-67940441D01*
X84589983Y-68132705D01*
X84482593Y-68348372D01*
X84482590Y-68348378D01*
X84419534Y-68569999D01*
X84419535Y-68570000D01*
X85384314Y-68570000D01*
X85379920Y-68574394D01*
X85327259Y-68665606D01*
X85300000Y-68767339D01*
X85300000Y-68872661D01*
X85327259Y-68974394D01*
X85379920Y-69065606D01*
X85384314Y-69070000D01*
X84419534Y-69070000D01*
X84415409Y-69075462D01*
X84396367Y-69089591D01*
X84405202Y-69093626D01*
X84442976Y-69152404D01*
X84443265Y-69153405D01*
X84482590Y-69291621D01*
X84482593Y-69291627D01*
X84589983Y-69507294D01*
X84735174Y-69699558D01*
X84913218Y-69861866D01*
X84913220Y-69861868D01*
X85118054Y-69988695D01*
X85118060Y-69988698D01*
X85342716Y-70075729D01*
X85450000Y-70095784D01*
X85450000Y-69135686D01*
X85454394Y-69140080D01*
X85545606Y-69192741D01*
X85647339Y-69220000D01*
X85752661Y-69220000D01*
X85854394Y-69192741D01*
X85945606Y-69140080D01*
X85950000Y-69135686D01*
X85950000Y-70095784D01*
X86057283Y-70075729D01*
X86057284Y-70075729D01*
X86281939Y-69988698D01*
X86281945Y-69988695D01*
X86486779Y-69861868D01*
X86486781Y-69861866D01*
X86664825Y-69699558D01*
X86810016Y-69507294D01*
X86917406Y-69291627D01*
X86917409Y-69291621D01*
X86980465Y-69070000D01*
X86015686Y-69070000D01*
X86020080Y-69065606D01*
X86072741Y-68974394D01*
X86100000Y-68872661D01*
X86100000Y-68767339D01*
X86072741Y-68665606D01*
X86020080Y-68574394D01*
X86015686Y-68570000D01*
X86980465Y-68570000D01*
X86980465Y-68569999D01*
X86917409Y-68348378D01*
X86917406Y-68348372D01*
X86810016Y-68132705D01*
X86664825Y-67940441D01*
X86486781Y-67778133D01*
X86486779Y-67778131D01*
X86289078Y-67655721D01*
X86242442Y-67603693D01*
X86231338Y-67534712D01*
X86259291Y-67470677D01*
X86289078Y-67444867D01*
X86487082Y-67322268D01*
X86487081Y-67322268D01*
X86487084Y-67322267D01*
X86570867Y-67245888D01*
X86645488Y-67177863D01*
X86708292Y-67147246D01*
X86729026Y-67145500D01*
X88495918Y-67145500D01*
X88562957Y-67165185D01*
X88608712Y-67217989D01*
X88618656Y-67287147D01*
X88616809Y-67297091D01*
X88616521Y-67298351D01*
X88593802Y-67499996D01*
X88593802Y-67500003D01*
X88616520Y-67701639D01*
X88616521Y-67701645D01*
X88683543Y-67893184D01*
X88742037Y-67986276D01*
X88791506Y-68065005D01*
X88934995Y-68208494D01*
X89018295Y-68260835D01*
X89040003Y-68278147D01*
X90251897Y-69490042D01*
X90251901Y-69490045D01*
X90395288Y-69585854D01*
X90395301Y-69585861D01*
X90554621Y-69651853D01*
X90554626Y-69651855D01*
X90723766Y-69685499D01*
X90723769Y-69685500D01*
X90723771Y-69685500D01*
X90896229Y-69685500D01*
X92290974Y-69685500D01*
X92358013Y-69705185D01*
X92374512Y-69717863D01*
X92409765Y-69750000D01*
X92532916Y-69862267D01*
X92737834Y-69989147D01*
X92962577Y-70076213D01*
X93199491Y-70120500D01*
X93199493Y-70120500D01*
X93440507Y-70120500D01*
X93440509Y-70120500D01*
X93677423Y-70076213D01*
X93902166Y-69989147D01*
X94107084Y-69862267D01*
X94285198Y-69699894D01*
X94430444Y-69507558D01*
X94537875Y-69291807D01*
X94603833Y-69059990D01*
X94626071Y-68820000D01*
X94603833Y-68580010D01*
X94537875Y-68348193D01*
X94521967Y-68316246D01*
X94468313Y-68208493D01*
X94430444Y-68132442D01*
X94285198Y-67940106D01*
X94285196Y-67940103D01*
X94107084Y-67777733D01*
X94107082Y-67777731D01*
X93909553Y-67655427D01*
X93862917Y-67603399D01*
X93851813Y-67534418D01*
X93879766Y-67470383D01*
X93909553Y-67444573D01*
X94107082Y-67322268D01*
X94107081Y-67322268D01*
X94107084Y-67322267D01*
X94190867Y-67245888D01*
X94265488Y-67177863D01*
X94328292Y-67147246D01*
X94349026Y-67145500D01*
X95816231Y-67145500D01*
X95816232Y-67145499D01*
X95985374Y-67111855D01*
X96144705Y-67045858D01*
X96288099Y-66950045D01*
X96412820Y-66825322D01*
X96474141Y-66791839D01*
X96543833Y-66796823D01*
X96599767Y-66838694D01*
X96624184Y-66904158D01*
X96624500Y-66913005D01*
X96624500Y-70776000D01*
X96604815Y-70843039D01*
X96552011Y-70888794D01*
X96500500Y-70900000D01*
X96250000Y-70900000D01*
X96250000Y-72101000D01*
X96230315Y-72168039D01*
X96177511Y-72213794D01*
X96126000Y-72225000D01*
X94800001Y-72225000D01*
X94800001Y-72360632D01*
X94806864Y-72436179D01*
X94806866Y-72436187D01*
X94861050Y-72610068D01*
X94955278Y-72765940D01*
X95084058Y-72894720D01*
X95089963Y-72899346D01*
X95088807Y-72900820D01*
X95129372Y-72945108D01*
X95141216Y-73013966D01*
X95113953Y-73078297D01*
X95089242Y-73099714D01*
X95089662Y-73100250D01*
X95083753Y-73104879D01*
X94954879Y-73233753D01*
X94954875Y-73233758D01*
X94860593Y-73389721D01*
X94860591Y-73389725D01*
X94806372Y-73563723D01*
X94799500Y-73639347D01*
X94799500Y-74410662D01*
X94806370Y-74486268D01*
X94806372Y-74486275D01*
X94860591Y-74660274D01*
X94860593Y-74660278D01*
X94954875Y-74816241D01*
X94954879Y-74816246D01*
X95088181Y-74949548D01*
X95121666Y-75010871D01*
X95124500Y-75037229D01*
X95124500Y-75462770D01*
X95104815Y-75529809D01*
X95088182Y-75550451D01*
X94954875Y-75683758D01*
X94860593Y-75839721D01*
X94860591Y-75839725D01*
X94806372Y-76013723D01*
X94799500Y-76089347D01*
X94799500Y-76910662D01*
X94806370Y-76986268D01*
X94806372Y-76986275D01*
X94860591Y-77160274D01*
X94860593Y-77160278D01*
X94954875Y-77316241D01*
X94954876Y-77316242D01*
X94954878Y-77316244D01*
X94954880Y-77316247D01*
X95004045Y-77365412D01*
X95050952Y-77412319D01*
X95084436Y-77473643D01*
X95079452Y-77543334D01*
X95051039Y-77587593D01*
X95050540Y-77588093D01*
X94989250Y-77621640D01*
X94962771Y-77624500D01*
X93297675Y-77624500D01*
X93230636Y-77604815D01*
X93184881Y-77552011D01*
X93181040Y-77541327D01*
X93180757Y-77541431D01*
X93178906Y-77536350D01*
X93178903Y-77536337D01*
X93079035Y-77322171D01*
X93074884Y-77316242D01*
X92943494Y-77128597D01*
X92776402Y-76961506D01*
X92776395Y-76961501D01*
X92582834Y-76825967D01*
X92582830Y-76825965D01*
X92510198Y-76792096D01*
X92368663Y-76726097D01*
X92368659Y-76726096D01*
X92368655Y-76726094D01*
X92140413Y-76664938D01*
X92140403Y-76664936D01*
X91905001Y-76644341D01*
X91904999Y-76644341D01*
X91669596Y-76664936D01*
X91669586Y-76664938D01*
X91441344Y-76726094D01*
X91441335Y-76726098D01*
X91227171Y-76825964D01*
X91227169Y-76825965D01*
X91033597Y-76961505D01*
X90866508Y-77128594D01*
X90736269Y-77314595D01*
X90681692Y-77358219D01*
X90612193Y-77365412D01*
X90549839Y-77333890D01*
X90533119Y-77314594D01*
X90403113Y-77128926D01*
X90403108Y-77128920D01*
X90236082Y-76961894D01*
X90042578Y-76826399D01*
X89828492Y-76726570D01*
X89828486Y-76726567D01*
X89615000Y-76669364D01*
X89615000Y-77566988D01*
X89557993Y-77534075D01*
X89430826Y-77500000D01*
X89299174Y-77500000D01*
X89172007Y-77534075D01*
X89115000Y-77566988D01*
X89115000Y-76669364D01*
X89114999Y-76669364D01*
X88901513Y-76726567D01*
X88901507Y-76726570D01*
X88687422Y-76826399D01*
X88687420Y-76826400D01*
X88493926Y-76961886D01*
X88370865Y-77084947D01*
X88309542Y-77118431D01*
X88239850Y-77113447D01*
X88183917Y-77071575D01*
X88166143Y-77038220D01*
X88122498Y-76913492D01*
X88122498Y-76913491D01*
X88057900Y-76825964D01*
X88032904Y-76792095D01*
X87943475Y-76726094D01*
X87911509Y-76702502D01*
X87911507Y-76702501D01*
X87769107Y-76652672D01*
X87769095Y-76652670D01*
X87735288Y-76649500D01*
X87735284Y-76649500D01*
X85914716Y-76649500D01*
X85914712Y-76649500D01*
X85880904Y-76652670D01*
X85880892Y-76652672D01*
X85738492Y-76702501D01*
X85617095Y-76792095D01*
X85527501Y-76913492D01*
X85482725Y-77041455D01*
X85442004Y-77098231D01*
X85377051Y-77123978D01*
X85365684Y-77124500D01*
X84316846Y-77124500D01*
X84249807Y-77104815D01*
X84204052Y-77052011D01*
X84193355Y-76989278D01*
X84193628Y-76986275D01*
X84200500Y-76910655D01*
X84200499Y-76089346D01*
X84200499Y-76089345D01*
X84200499Y-76089337D01*
X84193629Y-76013731D01*
X84193628Y-76013728D01*
X84193628Y-76013725D01*
X84139407Y-75839723D01*
X84139406Y-75839721D01*
X84045124Y-75683758D01*
X84045123Y-75683757D01*
X84045121Y-75683755D01*
X84045120Y-75683753D01*
X83916247Y-75554880D01*
X83916246Y-75554879D01*
X83911818Y-75550451D01*
X83878334Y-75489128D01*
X83875500Y-75462770D01*
X83875500Y-75037229D01*
X83895185Y-74970190D01*
X83911819Y-74949548D01*
X83916247Y-74945120D01*
X84045120Y-74816247D01*
X84139407Y-74660277D01*
X84193628Y-74486275D01*
X84200500Y-74410655D01*
X84200500Y-74410288D01*
X85609500Y-74410288D01*
X85612670Y-74444095D01*
X85612672Y-74444107D01*
X85662501Y-74586507D01*
X85752095Y-74707904D01*
X85812793Y-74752701D01*
X85873491Y-74797498D01*
X85916849Y-74812669D01*
X86015892Y-74847327D01*
X86015896Y-74847327D01*
X86015900Y-74847329D01*
X86032808Y-74848914D01*
X86049712Y-74850500D01*
X86049716Y-74850500D01*
X87870288Y-74850500D01*
X87885313Y-74849090D01*
X87904100Y-74847329D01*
X87904104Y-74847327D01*
X87904107Y-74847327D01*
X87992927Y-74816247D01*
X88046509Y-74797498D01*
X88167904Y-74707904D01*
X88257498Y-74586509D01*
X88300960Y-74462300D01*
X88341680Y-74405528D01*
X88406632Y-74379780D01*
X88475194Y-74393236D01*
X88505681Y-74415577D01*
X88628599Y-74538495D01*
X88697167Y-74586507D01*
X88822165Y-74674032D01*
X88822167Y-74674033D01*
X88822170Y-74674035D01*
X89036337Y-74773903D01*
X89264592Y-74835063D01*
X89441034Y-74850500D01*
X89499999Y-74855659D01*
X89500000Y-74855659D01*
X89500001Y-74855659D01*
X89558966Y-74850500D01*
X89735408Y-74835063D01*
X89963663Y-74773903D01*
X90177830Y-74674035D01*
X90371401Y-74538495D01*
X90538495Y-74371401D01*
X90668425Y-74185842D01*
X90723002Y-74142217D01*
X90792500Y-74135023D01*
X90854855Y-74166546D01*
X90871575Y-74185842D01*
X91001500Y-74371395D01*
X91001505Y-74371401D01*
X91168599Y-74538495D01*
X91237167Y-74586507D01*
X91362165Y-74674032D01*
X91362167Y-74674033D01*
X91362170Y-74674035D01*
X91576337Y-74773903D01*
X91804592Y-74835063D01*
X91981034Y-74850500D01*
X92039999Y-74855659D01*
X92040000Y-74855659D01*
X92040001Y-74855659D01*
X92098966Y-74850500D01*
X92275408Y-74835063D01*
X92503663Y-74773903D01*
X92717830Y-74674035D01*
X92911401Y-74538495D01*
X93078495Y-74371401D01*
X93214035Y-74177830D01*
X93313903Y-73963663D01*
X93375063Y-73735408D01*
X93395659Y-73500000D01*
X93375063Y-73264592D01*
X93313903Y-73036337D01*
X93214035Y-72822171D01*
X93208425Y-72814158D01*
X93078494Y-72628597D01*
X92911402Y-72461506D01*
X92911395Y-72461501D01*
X92717834Y-72325967D01*
X92717830Y-72325965D01*
X92645198Y-72292096D01*
X92503663Y-72226097D01*
X92503659Y-72226096D01*
X92503655Y-72226094D01*
X92275413Y-72164938D01*
X92275403Y-72164936D01*
X92040001Y-72144341D01*
X92039999Y-72144341D01*
X91804596Y-72164936D01*
X91804586Y-72164938D01*
X91576344Y-72226094D01*
X91576335Y-72226098D01*
X91362171Y-72325964D01*
X91362169Y-72325965D01*
X91168597Y-72461505D01*
X91001505Y-72628597D01*
X90871575Y-72814158D01*
X90816998Y-72857783D01*
X90747500Y-72864977D01*
X90685145Y-72833454D01*
X90668425Y-72814158D01*
X90538494Y-72628597D01*
X90371402Y-72461506D01*
X90371395Y-72461501D01*
X90177834Y-72325967D01*
X90177830Y-72325965D01*
X90105198Y-72292096D01*
X89963663Y-72226097D01*
X89963659Y-72226096D01*
X89963655Y-72226094D01*
X89735413Y-72164938D01*
X89735403Y-72164936D01*
X89500001Y-72144341D01*
X89499999Y-72144341D01*
X89264596Y-72164936D01*
X89264586Y-72164938D01*
X89036344Y-72226094D01*
X89036335Y-72226098D01*
X88822171Y-72325964D01*
X88822169Y-72325965D01*
X88628600Y-72461503D01*
X88505681Y-72584422D01*
X88444358Y-72617906D01*
X88374666Y-72612922D01*
X88318733Y-72571050D01*
X88300960Y-72537699D01*
X88257498Y-72413491D01*
X88192900Y-72325964D01*
X88167904Y-72292095D01*
X88078475Y-72226094D01*
X88046509Y-72202502D01*
X88046507Y-72202501D01*
X87904107Y-72152672D01*
X87904095Y-72152670D01*
X87870288Y-72149500D01*
X87870284Y-72149500D01*
X86049716Y-72149500D01*
X86049712Y-72149500D01*
X86015904Y-72152670D01*
X86015892Y-72152672D01*
X85873492Y-72202501D01*
X85752095Y-72292095D01*
X85662501Y-72413492D01*
X85612672Y-72555892D01*
X85612670Y-72555904D01*
X85609500Y-72589711D01*
X85609500Y-74410288D01*
X84200500Y-74410288D01*
X84200499Y-73639346D01*
X84200499Y-73639345D01*
X84200499Y-73639337D01*
X84193629Y-73563731D01*
X84193628Y-73563728D01*
X84193628Y-73563725D01*
X84139407Y-73389723D01*
X84139406Y-73389721D01*
X84045124Y-73233758D01*
X84045120Y-73233753D01*
X83916246Y-73104879D01*
X83910338Y-73100250D01*
X83911428Y-73098858D01*
X83870619Y-73054289D01*
X83858785Y-72985428D01*
X83886058Y-72921102D01*
X83910495Y-72899931D01*
X83910037Y-72899346D01*
X83915941Y-72894720D01*
X84044721Y-72765940D01*
X84138948Y-72610071D01*
X84193134Y-72436180D01*
X84200000Y-72360622D01*
X84200000Y-72225000D01*
X81800001Y-72225000D01*
X81800001Y-72360632D01*
X81806864Y-72436179D01*
X81806866Y-72436187D01*
X81861050Y-72610068D01*
X81955278Y-72765940D01*
X82084058Y-72894720D01*
X82089963Y-72899346D01*
X82088807Y-72900820D01*
X82129372Y-72945108D01*
X82141216Y-73013966D01*
X82113953Y-73078297D01*
X82089242Y-73099714D01*
X82089662Y-73100250D01*
X82083753Y-73104879D01*
X81954879Y-73233753D01*
X81954875Y-73233758D01*
X81860593Y-73389721D01*
X81860591Y-73389725D01*
X81806372Y-73563723D01*
X81799500Y-73639347D01*
X81799500Y-74410662D01*
X81806370Y-74486268D01*
X81806372Y-74486275D01*
X81860591Y-74660274D01*
X81860593Y-74660278D01*
X81954875Y-74816241D01*
X81954879Y-74816246D01*
X82088181Y-74949548D01*
X82121666Y-75010871D01*
X82124500Y-75037229D01*
X82124500Y-75462770D01*
X82104815Y-75529809D01*
X82088182Y-75550451D01*
X81954875Y-75683758D01*
X81860593Y-75839721D01*
X81860591Y-75839725D01*
X81806372Y-76013723D01*
X81799500Y-76089347D01*
X81799500Y-76910662D01*
X81806370Y-76986268D01*
X81806372Y-76986275D01*
X81860591Y-77160274D01*
X81860593Y-77160278D01*
X81954875Y-77316241D01*
X81954876Y-77316242D01*
X81954878Y-77316244D01*
X81954880Y-77316247D01*
X82004045Y-77365412D01*
X82050952Y-77412319D01*
X82084436Y-77473643D01*
X82079452Y-77543334D01*
X82050952Y-77587681D01*
X81954875Y-77683758D01*
X81860593Y-77839721D01*
X81860591Y-77839725D01*
X81806372Y-78013723D01*
X81799500Y-78089347D01*
X81799500Y-78910662D01*
X81806370Y-78986268D01*
X81806372Y-78986275D01*
X81860591Y-79160274D01*
X81860593Y-79160278D01*
X81954875Y-79316241D01*
X81954879Y-79316246D01*
X82083753Y-79445120D01*
X82083758Y-79445124D01*
X82239721Y-79539406D01*
X82239725Y-79539408D01*
X82301273Y-79558586D01*
X82413725Y-79593628D01*
X82489345Y-79600500D01*
X82810993Y-79600499D01*
X82878032Y-79620183D01*
X82898674Y-79636818D01*
X83549675Y-80287819D01*
X83583160Y-80349142D01*
X83578176Y-80418834D01*
X83536304Y-80474767D01*
X83470840Y-80499184D01*
X83461994Y-80499500D01*
X81124500Y-80499500D01*
X81057461Y-80479815D01*
X81011706Y-80427011D01*
X81000500Y-80375500D01*
X81000500Y-71725000D01*
X81800000Y-71725000D01*
X82750000Y-71725000D01*
X82750000Y-70900000D01*
X83250000Y-70900000D01*
X83250000Y-71725000D01*
X84199999Y-71725000D01*
X94800000Y-71725000D01*
X95750000Y-71725000D01*
X95750000Y-70900000D01*
X95489367Y-70900000D01*
X95413820Y-70906864D01*
X95413812Y-70906866D01*
X95239931Y-70961050D01*
X95084059Y-71055278D01*
X94955278Y-71184059D01*
X94861051Y-71339928D01*
X94806865Y-71513819D01*
X94800000Y-71589377D01*
X94800000Y-71725000D01*
X84199999Y-71725000D01*
X84199999Y-71589367D01*
X84193135Y-71513820D01*
X84193133Y-71513812D01*
X84138949Y-71339931D01*
X84044721Y-71184059D01*
X83915940Y-71055278D01*
X83760071Y-70961051D01*
X83586180Y-70906865D01*
X83510622Y-70900000D01*
X83250000Y-70900000D01*
X82750000Y-70900000D01*
X82489367Y-70900000D01*
X82413820Y-70906864D01*
X82413812Y-70906866D01*
X82239931Y-70961050D01*
X82084059Y-71055278D01*
X81955278Y-71184059D01*
X81861051Y-71339928D01*
X81806865Y-71513819D01*
X81800000Y-71589377D01*
X81800000Y-71725000D01*
X81000500Y-71725000D01*
X81000500Y-69750000D01*
X81800001Y-69750000D01*
X81800001Y-69910632D01*
X81806864Y-69986179D01*
X81806866Y-69986187D01*
X81861050Y-70160068D01*
X81955278Y-70315940D01*
X82084059Y-70444721D01*
X82239928Y-70538948D01*
X82413819Y-70593134D01*
X82489377Y-70599999D01*
X82749999Y-70599999D01*
X82750000Y-70599998D01*
X82750000Y-69750000D01*
X83250000Y-69750000D01*
X83250000Y-70599999D01*
X83510631Y-70599999D01*
X83586179Y-70593135D01*
X83586187Y-70593133D01*
X83760068Y-70538949D01*
X83915940Y-70444721D01*
X84044721Y-70315940D01*
X84138948Y-70160071D01*
X84193134Y-69986180D01*
X84200000Y-69910622D01*
X84200000Y-69750000D01*
X83250000Y-69750000D01*
X82750000Y-69750000D01*
X81800001Y-69750000D01*
X81000500Y-69750000D01*
X81000500Y-41624500D01*
X81020185Y-41557461D01*
X81072989Y-41511706D01*
X81124500Y-41500500D01*
X87831240Y-41500500D01*
X87898279Y-41520185D01*
G37*
%TD.AperFunction*%
%TD*%
M02*
